# MagicaVoxel @ Ephtracy

# group
o 

# material
mtllib ele.mtl
usemtl palette

# normals
vn -1 0 0
vn 1 0 0
vn 0 0 1
vn 0 0 -1
vn 0 -1 0
vn 0 1 0

# texcoords
vt 0.0292969 0.5
vt 0.962891 0.5
vt 0.970703 0.5
vt 0.974609 0.5
vt 0.994141 0.5

# verts
v 0.5 3.6 -1.7
v 0.5 3.6 -1.8
v 0.5 3.6 -2.2
v 0.5 3.6 -2.3
v 0.5 3.8 -1.7
v 0.5 3.8 -1.8
v 0.5 3.8 -2.2
v 0.5 3.8 -2.3
v 0.6 3.1 -1.8
v 0.6 3.1 -2.2
v 0.6 3.6 -1.8
v 0.6 3.6 -2.2
v 0.6 3.8 -1.8
v 0.6 3.8 -2.2
v 0.6 3.9 -1.8
v 0.6 3.9 -1.9
v 0.6 3.9 -2.1
v 0.6 3.9 -2.2
v 0.6 4 -1.9
v 0.6 4 -2.1
v 0.9 3.3 -1.5
v 0.9 3.3 -2.5
v 0.9 3.6 -1.7
v 0.9 3.6 -1.8
v 0.9 3.6 -2.2
v 0.9 3.6 -2.3
v 0.9 3.7 -1.7
v 0.9 3.7 -1.8
v 0.9 3.7 -2.2
v 0.9 3.7 -2.3
v 0.9 3.9 -1.8
v 0.9 3.9 -1.9
v 0.9 3.9 -2.1
v 0.9 3.9 -2.2
v 0.9 4 -1.7
v 0.9 4 -1.8
v 0.9 4 -1.9
v 0.9 4 -2.1
v 0.9 4 -2.2
v 0.9 4 -2.3
v 0.9 4.1 -1.7
v 0.9 4.1 -1.8
v 0.9 4.1 -2.2
v 0.9 4.1 -2.3
v 0.9 4.5 -1.5
v 0.9 4.5 -2.5
v 1.2 3.8 -1.1
v 1.2 3.8 -1.5
v 1.2 3.8 -2.5
v 1.2 3.8 -2.9
v 1.2 4 -1.3
v 1.2 4 -1.5
v 1.2 4 -2.5
v 1.2 4 -2.7
v 1.2 4.2 -1.2
v 1.2 4.2 -1.3
v 1.2 4.2 -2.7
v 1.2 4.2 -2.8
v 1.2 4.5 -1.5
v 1.2 4.5 -1.6
v 1.2 4.5 -1.7
v 1.2 4.5 -2.3
v 1.2 4.5 -2.4
v 1.2 4.5 -2.5
v 1.2 4.6 -1.2
v 1.2 4.6 -1.6
v 1.2 4.6 -2.4
v 1.2 4.6 -2.8
v 1.2 4.7 -1.1
v 1.2 4.7 -1.7
v 1.2 4.7 -2.3
v 1.2 4.7 -2.9
v 1.7 2 -1.1
v 1.7 2 -1.5
v 1.7 2 -2.5
v 1.7 2 -2.9
v 1.7 2.9 -1.5
v 1.7 2.9 -2.5
v 1.7 3.3 -1.5
v 1.7 3.3 -2.5
v 1.7 4 -1.1
v 1.7 4 -1.5
v 1.7 4 -2.5
v 1.7 4 -2.9
v 3.2 2 -1.1
v 3.2 2 -1.5
v 3.2 2 -2.5
v 3.2 2 -2.9
v 3.2 2.9 -1.1
v 3.2 2.9 -1.5
v 3.2 2.9 -2.5
v 3.2 2.9 -2.9
v 3.7 3.3 -1.9
v 3.7 3.3 -2.1
v 3.7 3.4 -1.9
v 3.7 3.4 -2.1
v 0.6 3.7 -1.7
v 0.6 3.7 -1.8
v 0.6 3.7 -2.2
v 0.6 3.7 -2.3
v 0.6 3.8 -1.7
v 0.6 3.8 -1.8
v 0.6 3.8 -2.2
v 0.6 3.8 -2.3
v 0.8 3.1 -1.8
v 0.8 3.1 -2.2
v 0.8 3.6 -1.8
v 0.8 3.6 -2.2
v 1.6 3.8 -1.1
v 1.6 3.8 -1.5
v 1.6 3.8 -2.5
v 1.6 3.8 -2.9
v 1.6 4.5 -1.5
v 1.6 4.5 -1.7
v 1.6 4.5 -2.3
v 1.6 4.5 -2.5
v 1.6 4.7 -1.1
v 1.6 4.7 -1.7
v 1.6 4.7 -2.3
v 1.6 4.7 -2.9
v 2 4 -1.5
v 2 4 -2.5
v 2 4.5 -1.5
v 2 4.5 -2.5
v 2.1 2 -1.1
v 2.1 2 -1.5
v 2.1 2 -2.5
v 2.1 2 -2.9
v 2.1 2.9 -1.1
v 2.1 2.9 -1.5
v 2.1 2.9 -2.5
v 2.1 2.9 -2.9
v 3.6 2 -1.1
v 3.6 2 -1.5
v 3.6 2 -2.5
v 3.6 2 -2.9
v 3.6 2.9 -1.5
v 3.6 2.9 -2.5
v 3.6 3.4 -1.9
v 3.6 3.4 -2.1
v 3.6 3.6 -1.9
v 3.6 3.6 -2.1
v 3.6 4 -1.1
v 3.6 4 -2.9
v 3.9 3.3 -1.9
v 3.9 3.3 -2.1
v 3.9 3.6 -1.9
v 3.9 3.6 -2.1
v 1.2 3.8 -1.1
v 1.2 4.7 -1.1
v 1.6 3.8 -1.1
v 1.6 4.7 -1.1
v 1.7 2 -1.1
v 1.7 4 -1.1
v 2.1 2 -1.1
v 2.1 2.9 -1.1
v 3.2 2 -1.1
v 3.2 2.9 -1.1
v 3.6 2 -1.1
v 3.6 4 -1.1
v 0.9 3.3 -1.5
v 0.9 4.5 -1.5
v 1.2 3.8 -1.5
v 1.2 4 -1.5
v 1.2 4.5 -1.5
v 1.6 3.8 -1.5
v 1.6 4.5 -1.5
v 1.7 3.3 -1.5
v 1.7 4 -1.5
v 2 4 -1.5
v 2 4.5 -1.5
v 0.5 3.6 -1.7
v 0.5 3.8 -1.7
v 0.6 3.7 -1.7
v 0.6 3.8 -1.7
v 0.9 3.6 -1.7
v 0.9 3.7 -1.7
v 0.6 3.1 -1.8
v 0.6 3.6 -1.8
v 0.6 3.7 -1.8
v 0.6 3.8 -1.8
v 0.6 3.9 -1.8
v 0.8 3.1 -1.8
v 0.8 3.6 -1.8
v 0.8 3.7 -1.8
v 0.8 3.9 -1.8
v 0.9 3.7 -1.8
v 0.9 3.9 -1.8
v 0.6 3.9 -1.9
v 0.6 4 -1.9
v 0.8 3.9 -1.9
v 0.8 4 -1.9
v 0.9 3.9 -1.9
v 0.9 4 -1.9
v 3.6 3.4 -1.9
v 3.6 3.6 -1.9
v 3.7 3.3 -1.9
v 3.7 3.4 -1.9
v 3.9 3.3 -1.9
v 3.9 3.6 -1.9
v 0.5 3.6 -2.2
v 0.5 3.8 -2.2
v 0.6 3.6 -2.2
v 0.6 3.8 -2.2
v 1.2 4.5 -2.3
v 1.2 4.7 -2.3
v 1.6 4.5 -2.3
v 1.6 4.7 -2.3
v 1.7 2 -2.5
v 1.7 2.9 -2.5
v 2.1 2 -2.5
v 2.1 2.9 -2.5
v 3.2 2 -2.5
v 3.2 2.9 -2.5
v 3.6 2 -2.5
v 3.6 2.9 -2.5
v 1.7 2 -1.5
v 1.7 2.9 -1.5
v 2.1 2 -1.5
v 2.1 2.9 -1.5
v 3.2 2 -1.5
v 3.2 2.9 -1.5
v 3.6 2 -1.5
v 3.6 2.9 -1.5
v 1.2 4.5 -1.7
v 1.2 4.7 -1.7
v 1.6 4.5 -1.7
v 1.6 4.7 -1.7
v 0.5 3.6 -1.8
v 0.5 3.8 -1.8
v 0.6 3.6 -1.8
v 0.6 3.8 -1.8
v 0.6 3.9 -2.1
v 0.6 4 -2.1
v 0.8 3.9 -2.1
v 0.8 4 -2.1
v 0.9 3.9 -2.1
v 0.9 4 -2.1
v 3.6 3.4 -2.1
v 3.6 3.6 -2.1
v 3.7 3.3 -2.1
v 3.7 3.4 -2.1
v 3.9 3.3 -2.1
v 3.9 3.6 -2.1
v 0.6 3.1 -2.2
v 0.6 3.6 -2.2
v 0.6 3.7 -2.2
v 0.6 3.8 -2.2
v 0.6 3.9 -2.2
v 0.8 3.1 -2.2
v 0.8 3.6 -2.2
v 0.8 3.7 -2.2
v 0.8 3.9 -2.2
v 0.9 3.7 -2.2
v 0.9 3.9 -2.2
v 0.5 3.6 -2.3
v 0.5 3.8 -2.3
v 0.6 3.7 -2.3
v 0.6 3.8 -2.3
v 0.9 3.6 -2.3
v 0.9 3.7 -2.3
v 0.9 3.3 -2.5
v 0.9 4.5 -2.5
v 1.2 3.8 -2.5
v 1.2 4 -2.5
v 1.2 4.5 -2.5
v 1.6 3.8 -2.5
v 1.6 4.5 -2.5
v 1.7 3.3 -2.5
v 1.7 4 -2.5
v 2 4 -2.5
v 2 4.5 -2.5
v 1.2 3.8 -2.9
v 1.2 4.7 -2.9
v 1.6 3.8 -2.9
v 1.6 4.7 -2.9
v 1.7 2 -2.9
v 1.7 4 -2.9
v 2.1 2 -2.9
v 2.1 2.9 -2.9
v 3.2 2 -2.9
v 3.2 2.9 -2.9
v 3.6 2 -2.9
v 3.6 4 -2.9
v 1.7 2 -1.1
v 2.1 2 -1.1
v 3.2 2 -1.1
v 3.6 2 -1.1
v 1.7 2 -1.5
v 2.1 2 -1.5
v 3.2 2 -1.5
v 3.6 2 -1.5
v 1.7 2 -2.5
v 2.1 2 -2.5
v 3.2 2 -2.5
v 3.6 2 -2.5
v 1.7 2 -2.9
v 2.1 2 -2.9
v 3.2 2 -2.9
v 3.6 2 -2.9
v 2.1 2.9 -1.1
v 3.2 2.9 -1.1
v 1.7 2.9 -1.5
v 2.1 2.9 -1.5
v 3.2 2.9 -1.5
v 3.6 2.9 -1.5
v 1.7 2.9 -2.5
v 2.1 2.9 -2.5
v 3.2 2.9 -2.5
v 3.6 2.9 -2.5
v 2.1 2.9 -2.9
v 3.2 2.9 -2.9
v 0.6 3.1 -1.8
v 0.8 3.1 -1.8
v 0.6 3.1 -2.2
v 0.8 3.1 -2.2
v 0.9 3.3 -1.5
v 1.7 3.3 -1.5
v 3.7 3.3 -1.9
v 3.9 3.3 -1.9
v 3.7 3.3 -2.1
v 3.9 3.3 -2.1
v 0.9 3.3 -2.5
v 1.7 3.3 -2.5
v 3.6 3.4 -1.9
v 3.7 3.4 -1.9
v 3.6 3.4 -2.1
v 3.7 3.4 -2.1
v 0.5 3.6 -1.7
v 0.9 3.6 -1.7
v 0.5 3.6 -1.8
v 0.6 3.6 -1.8
v 0.8 3.6 -1.8
v 0.9 3.6 -1.8
v 0.5 3.6 -2.2
v 0.6 3.6 -2.2
v 0.8 3.6 -2.2
v 0.9 3.6 -2.2
v 0.5 3.6 -2.3
v 0.9 3.6 -2.3
v 1.2 3.8 -1.1
v 1.6 3.8 -1.1
v 1.2 3.8 -1.5
v 1.6 3.8 -1.5
v 1.2 3.8 -2.5
v 1.6 3.8 -2.5
v 1.2 3.8 -2.9
v 1.6 3.8 -2.9
v 3.6 3.6 -1.9
v 3.9 3.6 -1.9
v 3.6 3.6 -2.1
v 3.9 3.6 -2.1
v 0.6 3.7 -1.7
v 0.9 3.7 -1.7
v 0.6 3.7 -1.8
v 0.8 3.7 -1.8
v 0.9 3.7 -1.8
v 0.6 3.7 -2.2
v 0.8 3.7 -2.2
v 0.9 3.7 -2.2
v 0.6 3.7 -2.3
v 0.9 3.7 -2.3
v 0.5 3.8 -1.7
v 0.6 3.8 -1.7
v 0.5 3.8 -1.8
v 0.6 3.8 -1.8
v 0.5 3.8 -2.2
v 0.6 3.8 -2.2
v 0.5 3.8 -2.3
v 0.6 3.8 -2.3
v 0.6 3.9 -1.8
v 0.8 3.9 -1.8
v 0.9 3.9 -1.8
v 0.6 3.9 -1.9
v 0.8 3.9 -1.9
v 0.9 3.9 -1.9
v 0.6 3.9 -2.1
v 0.8 3.9 -2.1
v 0.9 3.9 -2.1
v 0.6 3.9 -2.2
v 0.8 3.9 -2.2
v 0.9 3.9 -2.2
v 1.7 4 -1.1
v 3.6 4 -1.1
v 1.7 4 -1.5
v 2 4 -1.5
v 0.6 4 -1.9
v 0.8 4 -1.9
v 0.9 4 -1.9
v 0.6 4 -2.1
v 0.8 4 -2.1
v 0.9 4 -2.1
v 1.7 4 -2.5
v 2 4 -2.5
v 1.7 4 -2.9
v 3.6 4 -2.9
v 0.9 4.5 -1.5
v 1.2 4.5 -1.5
v 1.6 4.5 -1.5
v 2 4.5 -1.5
v 1.2 4.5 -1.6
v 1.2 4.5 -1.7
v 1.6 4.5 -1.7
v 1.2 4.5 -2.3
v 1.6 4.5 -2.3
v 1.2 4.5 -2.4
v 0.9 4.5 -2.5
v 1.2 4.5 -2.5
v 1.6 4.5 -2.5
v 2 4.5 -2.5
v 1.2 4.7 -1.1
v 1.6 4.7 -1.1
v 1.2 4.7 -1.7
v 1.6 4.7 -1.7
v 1.2 4.7 -2.3
v 1.6 4.7 -2.3
v 1.2 4.7 -2.9
v 1.6 4.7 -2.9

# faces
f 5/2/1 2/2/1 1/2/1
f 6/2/1 2/2/1 5/2/1
f 7/2/1 4/2/1 3/2/1
f 8/2/1 4/2/1 7/2/1
f 11/3/1 10/3/1 9/3/1
f 12/3/1 10/3/1 11/3/1
f 13/3/1 12/3/1 11/3/1
f 14/3/1 12/3/1 13/3/1
f 15/3/1 14/3/1 13/3/1
f 16/3/1 14/3/1 15/3/1
f 17/3/1 14/3/1 16/3/1
f 18/3/1 14/3/1 17/3/1
f 19/3/1 17/3/1 16/3/1
f 20/3/1 17/3/1 19/3/1
f 23/4/1 22/4/1 21/4/1
f 24/4/1 22/4/1 23/4/1
f 25/4/1 22/4/1 24/4/1
f 26/4/1 22/4/1 25/4/1
f 27/4/1 23/4/1 21/4/1
f 30/4/1 22/4/1 26/4/1
f 31/4/1 28/4/1 27/4/1
f 34/4/1 30/4/1 29/4/1
f 35/4/1 32/4/1 31/4/1
f 35/4/1 27/4/1 21/4/1
f 35/4/1 31/4/1 27/4/1
f 36/4/1 32/4/1 35/4/1
f 37/4/1 32/4/1 36/4/1
f 38/4/1 34/4/1 33/4/1
f 39/4/1 30/4/1 34/4/1
f 39/4/1 34/4/1 38/4/1
f 40/4/1 22/4/1 30/4/1
f 40/4/1 30/4/1 39/4/1
f 41/4/1 35/4/1 21/4/1
f 41/5/1 36/5/1 35/5/1
f 42/4/1 37/4/1 36/4/1
f 42/5/1 36/5/1 41/5/1
f 42/4/1 38/4/1 37/4/1
f 42/4/1 39/4/1 38/4/1
f 43/5/1 40/5/1 39/5/1
f 43/4/1 39/4/1 42/4/1
f 44/4/1 22/4/1 40/4/1
f 44/5/1 40/5/1 43/5/1
f 45/4/1 41/4/1 21/4/1
f 45/4/1 42/4/1 41/4/1
f 45/4/1 44/4/1 43/4/1
f 45/4/1 43/4/1 42/4/1
f 46/4/1 22/4/1 44/4/1
f 46/4/1 44/4/1 45/4/1
f 51/3/1 48/3/1 47/3/1
f 52/3/1 48/3/1 51/3/1
f 53/3/1 50/3/1 49/3/1
f 54/3/1 50/3/1 53/3/1
f 55/3/1 51/3/1 47/3/1
f 56/1/1 52/1/1 51/1/1
f 56/3/1 51/3/1 55/3/1
f 57/3/1 50/3/1 54/3/1
f 57/1/1 54/1/1 53/1/1
f 58/3/1 50/3/1 57/3/1
f 59/1/1 52/1/1 56/1/1
f 59/1/1 56/1/1 55/1/1
f 64/1/1 58/1/1 57/1/1
f 64/1/1 57/1/1 53/1/1
f 65/3/1 55/3/1 47/3/1
f 65/1/1 59/1/1 55/1/1
f 65/1/1 60/1/1 59/1/1
f 66/3/1 61/3/1 60/3/1
f 66/1/1 60/1/1 65/1/1
f 67/1/1 64/1/1 63/1/1
f 67/3/1 63/3/1 62/3/1
f 68/3/1 50/3/1 58/3/1
f 68/1/1 64/1/1 67/1/1
f 68/1/1 58/1/1 64/1/1
f 69/3/1 66/3/1 65/3/1
f 69/3/1 65/3/1 47/3/1
f 70/3/1 61/3/1 66/3/1
f 70/3/1 66/3/1 69/3/1
f 71/3/1 67/3/1 62/3/1
f 71/3/1 68/3/1 67/3/1
f 72/3/1 50/3/1 68/3/1
f 72/3/1 68/3/1 71/3/1
f 77/4/1 74/4/1 73/4/1
f 78/4/1 76/4/1 75/4/1
f 79/4/1 77/4/1 73/4/1
f 79/4/1 78/4/1 77/4/1
f 80/4/1 76/4/1 78/4/1
f 80/4/1 78/4/1 79/4/1
f 81/4/1 79/4/1 73/4/1
f 82/4/1 79/4/1 81/4/1
f 83/4/1 76/4/1 80/4/1
f 84/4/1 76/4/1 83/4/1
f 89/4/1 86/4/1 85/4/1
f 90/4/1 86/4/1 89/4/1
f 91/4/1 88/4/1 87/4/1
f 92/4/1 88/4/1 91/4/1
f 95/4/1 94/4/1 93/4/1
f 96/4/1 94/4/1 95/4/1
f 97/2/2 98/2/2 101/2/2
f 101/2/2 98/2/2 102/2/2
f 99/2/2 100/2/2 103/2/2
f 103/2/2 100/2/2 104/2/2
f 105/3/2 106/3/2 107/3/2
f 107/3/2 106/3/2 108/3/2
f 109/3/2 110/3/2 113/3/2
f 111/3/2 112/3/2 116/3/2
f 113/3/2 114/3/2 117/3/2
f 109/3/2 113/3/2 117/3/2
f 117/3/2 114/3/2 118/3/2
f 115/3/2 116/3/2 119/3/2
f 116/3/2 112/3/2 120/3/2
f 119/3/2 116/3/2 120/3/2
f 121/4/2 122/4/2 123/4/2
f 123/4/2 122/4/2 124/4/2
f 125/4/2 126/4/2 129/4/2
f 129/4/2 126/4/2 130/4/2
f 127/4/2 128/4/2 131/4/2
f 131/4/2 128/4/2 132/4/2
f 133/4/2 134/4/2 137/4/2
f 135/4/2 136/4/2 138/4/2
f 137/4/2 138/4/2 139/4/2
f 139/4/2 138/4/2 140/4/2
f 137/4/2 139/4/2 141/4/2
f 140/4/2 138/4/2 142/4/2
f 133/4/2 137/4/2 143/4/2
f 141/4/2 142/4/2 143/4/2
f 137/4/2 141/4/2 143/4/2
f 142/4/2 138/4/2 144/4/2
f 143/4/2 142/4/2 144/4/2
f 138/4/2 136/4/2 144/4/2
f 145/4/2 146/4/2 147/4/2
f 147/4/2 146/4/2 148/4/2
f 151/3/3 150/3/3 149/3/3
f 152/3/3 150/3/3 151/3/3
f 155/4/3 154/4/3 153/4/3
f 156/4/3 154/4/3 155/4/3
f 158/4/3 154/4/3 156/4/3
f 159/4/3 158/4/3 157/4/3
f 160/4/3 154/4/3 158/4/3
f 160/4/3 158/4/3 159/4/3
f 163/4/3 162/4/3 161/4/3
f 164/4/3 162/4/3 163/4/3
f 165/4/3 162/4/3 164/4/3
f 166/4/3 163/4/3 161/4/3
f 168/4/3 166/4/3 161/4/3
f 168/4/3 167/4/3 166/4/3
f 169/4/3 167/4/3 168/4/3
f 170/4/3 167/4/3 169/4/3
f 171/4/3 167/4/3 170/4/3
f 174/2/3 173/2/3 172/2/3
f 175/2/3 173/2/3 174/2/3
f 176/2/3 174/2/3 172/2/3
f 177/2/3 174/2/3 176/2/3
f 183/3/3 179/3/3 178/3/3
f 184/3/3 179/3/3 183/3/3
f 185/3/3 182/3/3 181/3/3
f 185/3/3 181/3/3 180/3/3
f 186/3/3 182/3/3 185/3/3
f 187/4/3 186/4/3 185/4/3
f 188/4/3 186/4/3 187/4/3
f 191/3/3 190/3/3 189/3/3
f 192/3/3 190/3/3 191/3/3
f 193/4/3 192/4/3 191/4/3
f 194/4/3 192/4/3 193/4/3
f 198/4/3 196/4/3 195/4/3
f 199/4/3 198/4/3 197/4/3
f 200/4/3 196/4/3 198/4/3
f 200/4/3 198/4/3 199/4/3
f 203/2/3 202/2/3 201/2/3
f 204/2/3 202/2/3 203/2/3
f 207/3/3 206/3/3 205/3/3
f 208/3/3 206/3/3 207/3/3
f 211/4/3 210/4/3 209/4/3
f 212/4/3 210/4/3 211/4/3
f 215/4/3 214/4/3 213/4/3
f 216/4/3 214/4/3 215/4/3
f 217/4/4 218/4/4 219/4/4
f 219/4/4 218/4/4 220/4/4
f 221/4/4 222/4/4 223/4/4
f 223/4/4 222/4/4 224/4/4
f 225/3/4 226/3/4 227/3/4
f 227/3/4 226/3/4 228/3/4
f 229/2/4 230/2/4 231/2/4
f 231/2/4 230/2/4 232/2/4
f 233/3/4 234/3/4 235/3/4
f 235/3/4 234/3/4 236/3/4
f 235/4/4 236/4/4 237/4/4
f 237/4/4 236/4/4 238/4/4
f 239/4/4 240/4/4 242/4/4
f 241/4/4 242/4/4 243/4/4
f 242/4/4 240/4/4 244/4/4
f 243/4/4 242/4/4 244/4/4
f 245/3/4 246/3/4 250/3/4
f 250/3/4 246/3/4 251/3/4
f 248/3/4 249/3/4 252/3/4
f 247/3/4 248/3/4 252/3/4
f 252/3/4 249/3/4 253/3/4
f 252/4/4 253/4/4 254/4/4
f 254/4/4 253/4/4 255/4/4
f 256/2/4 257/2/4 258/2/4
f 258/2/4 257/2/4 259/2/4
f 256/2/4 258/2/4 260/2/4
f 260/2/4 258/2/4 261/2/4
f 262/4/4 263/4/4 264/4/4
f 264/4/4 263/4/4 265/4/4
f 265/4/4 263/4/4 266/4/4
f 262/4/4 264/4/4 267/4/4
f 262/4/4 267/4/4 269/4/4
f 267/4/4 268/4/4 269/4/4
f 269/4/4 268/4/4 270/4/4
f 270/4/4 268/4/4 271/4/4
f 271/4/4 268/4/4 272/4/4
f 273/3/4 274/3/4 275/3/4
f 275/3/4 274/3/4 276/3/4
f 277/4/4 278/4/4 279/4/4
f 279/4/4 278/4/4 280/4/4
f 280/4/4 278/4/4 282/4/4
f 281/4/4 282/4/4 283/4/4
f 282/4/4 278/4/4 284/4/4
f 283/4/4 282/4/4 284/4/4
f 289/4/5 286/4/5 285/4/5
f 290/4/5 286/4/5 289/4/5
f 291/4/5 288/4/5 287/4/5
f 292/4/5 288/4/5 291/4/5
f 297/4/5 294/4/5 293/4/5
f 298/4/5 294/4/5 297/4/5
f 299/4/5 296/4/5 295/4/5
f 300/4/5 296/4/5 299/4/5
f 304/4/5 302/4/5 301/4/5
f 305/4/5 302/4/5 304/4/5
f 307/4/5 304/4/5 303/4/5
f 307/4/5 306/4/5 305/4/5
f 307/4/5 305/4/5 304/4/5
f 308/4/5 306/4/5 307/4/5
f 309/4/5 306/4/5 308/4/5
f 310/4/5 306/4/5 309/4/5
f 311/4/5 309/4/5 308/4/5
f 312/4/5 309/4/5 311/4/5
f 315/3/5 314/3/5 313/3/5
f 316/3/5 314/3/5 315/3/5
f 321/4/5 320/4/5 319/4/5
f 322/4/5 320/4/5 321/4/5
f 323/4/5 318/4/5 317/4/5
f 324/4/5 318/4/5 323/4/5
f 327/4/5 326/4/5 325/4/5
f 328/4/5 326/4/5 327/4/5
f 331/2/5 330/2/5 329/2/5
f 332/2/5 330/2/5 331/2/5
f 333/2/5 330/2/5 332/2/5
f 334/2/5 330/2/5 333/2/5
f 337/4/5 334/4/5 333/4/5
f 338/4/5 334/4/5 337/4/5
f 339/2/5 336/2/5 335/2/5
f 339/2/5 337/2/5 336/2/5
f 339/2/5 338/2/5 337/2/5
f 340/2/5 338/2/5 339/2/5
f 343/3/5 342/3/5 341/3/5
f 344/3/5 342/3/5 343/3/5
f 347/3/5 346/3/5 345/3/5
f 348/3/5 346/3/5 347/3/5
f 349/4/6 350/4/6 351/4/6
f 351/4/6 350/4/6 352/4/6
f 353/2/6 354/2/6 355/2/6
f 355/2/6 354/2/6 356/2/6
f 356/2/6 354/2/6 357/2/6
f 358/2/6 359/2/6 361/2/6
f 359/2/6 360/2/6 361/2/6
f 361/2/6 360/2/6 362/2/6
f 363/2/6 364/2/6 365/2/6
f 365/2/6 364/2/6 366/2/6
f 367/2/6 368/2/6 369/2/6
f 369/2/6 368/2/6 370/2/6
f 371/3/6 372/3/6 374/3/6
f 372/4/6 373/4/6 375/4/6
f 374/3/6 372/3/6 375/3/6
f 375/4/6 373/4/6 376/4/6
f 377/3/6 378/3/6 380/3/6
f 378/4/6 379/4/6 381/4/6
f 380/3/6 378/3/6 381/3/6
f 381/4/6 379/4/6 382/4/6
f 383/4/6 384/4/6 385/4/6
f 385/4/6 384/4/6 386/4/6
f 387/3/6 388/3/6 390/3/6
f 388/4/6 389/4/6 391/4/6
f 390/3/6 388/3/6 391/3/6
f 391/4/6 389/4/6 392/4/6
f 386/4/6 384/4/6 394/4/6
f 393/4/6 394/4/6 395/4/6
f 394/4/6 384/4/6 396/4/6
f 395/4/6 394/4/6 396/4/6
f 397/4/6 398/4/6 401/4/6
f 397/4/6 401/4/6 402/4/6
f 399/4/6 400/4/6 403/4/6
f 397/4/6 402/4/6 404/4/6
f 402/4/6 403/4/6 404/4/6
f 403/4/6 400/4/6 405/4/6
f 404/4/6 403/4/6 405/4/6
f 397/4/6 404/4/6 406/4/6
f 397/4/6 406/4/6 407/4/6
f 407/4/6 406/4/6 408/4/6
f 405/4/6 400/4/6 409/4/6
f 409/4/6 400/4/6 410/4/6
f 411/3/6 412/3/6 413/3/6
f 413/3/6 412/3/6 414/3/6
f 415/3/6 416/3/6 417/3/6
f 417/3/6 416/3/6 418/3/6
