# Blender v2.80 (sub 75) OBJ File: ''
# www.blender.org
mtllib monkey.mtl
o monkey
v -3.305642 2.663900 0.302227
v -3.305642 0.363901 -0.297773
v -3.305642 0.363901 0.302227
v -3.305642 2.663900 -0.297773
v -2.005642 -0.736100 2.002227
v -2.005642 -4.036099 -1.997774
v -2.005642 -4.036100 2.002225
v -2.005642 -0.736099 -1.997773
v -2.005642 0.363901 0.302227
v -2.005642 -0.536099 -1.997773
v -2.005642 -0.536100 2.002227
v -2.005642 0.363901 -0.297773
v -2.005642 2.663900 0.302227
v -2.005642 2.663900 -0.297773
v -2.005642 3.763900 2.002229
v -2.005642 3.763901 -1.997771
v -1.905642 -0.536100 1.902227
v -1.905642 -0.736099 -1.897774
v -1.905642 -0.736100 1.902227
v -1.905642 -0.536099 -1.897774
v 1.894358 -0.736100 1.902227
v 1.894358 -0.736099 -1.897774
v 1.894358 -0.536100 1.902227
v 1.894358 -0.536099 -1.897774
v 1.994358 -4.036100 2.002225
v 1.994358 -4.036099 -1.997774
v 1.994358 -0.736100 2.002227
v 1.994358 -0.736099 -1.997773
v 1.994358 -0.536100 2.002227
v 1.994358 -0.536099 -1.997773
v 1.994358 0.363901 0.302227
v 1.994358 0.363901 -0.397773
v 1.994358 0.763901 0.302227
v 1.994358 2.263901 0.302227
v 1.994358 2.663900 0.302227
v 1.994358 2.663900 -0.397773
v 1.994358 3.763900 2.002229
v 1.994358 3.763901 -1.997771
v 3.294358 0.363901 0.302227
v 3.294358 0.363901 -0.397773
v 3.294358 2.663900 0.302227
v 3.294358 2.663900 -0.397773
v -1.405642 -0.336101 2.002227
v -2.005642 3.763900 2.002229
v -2.005642 -0.536100 2.002227
v -1.405642 2.363898 2.002228
v -1.305642 0.663899 2.002227
v -1.305642 0.863900 2.002227
v -1.205642 2.363898 2.002228
v -1.205642 2.863898 2.002228
v -1.005642 2.863898 2.002228
v -1.005642 2.963900 2.002228
v -0.805642 0.663899 2.002227
v -0.805642 0.863900 2.002227
v -0.805642 1.363899 2.002227
v -0.805642 1.963899 2.002227
v -0.705642 0.363900 2.002227
v -0.705642 0.463900 2.002227
v -0.605642 0.263900 2.002227
v -0.605642 0.363900 2.002227
v -0.605642 0.463900 2.002227
v -0.405642 0.163899 2.002227
v -0.405642 0.263900 2.002227
v -0.405642 1.363899 2.002227
v -0.405642 1.963899 2.002227
v -0.405642 2.863898 2.002228
v -0.405642 2.963900 2.002228
v -0.305642 0.263900 2.002227
v -0.305642 0.363900 2.002227
v -0.205642 0.863900 2.002227
v -0.205642 1.063900 2.002227
v -0.205642 2.363898 2.002228
v -0.205642 2.863898 2.002228
v -0.105642 2.263900 2.002228
v -0.105642 2.363898 2.002228
v -0.005642 0.263900 2.002227
v -0.005642 0.863900 2.002227
v 0.094358 0.263900 2.002227
v 0.094358 0.863900 2.002227
v 0.194358 2.263900 2.002228
v 0.194358 2.363898 2.002228
v 0.294358 0.863900 2.002227
v 0.294358 1.063900 2.002227
v 0.294358 2.363898 2.002228
v 0.294358 2.863898 2.002228
v 0.394358 0.263900 2.002227
v 0.394358 0.363900 2.002227
v 0.394358 2.863898 2.002228
v 0.394358 2.963900 2.002228
v 0.494358 0.163899 2.002227
v 0.494358 0.263900 2.002227
v 0.494358 1.363899 2.002227
v 0.494358 1.963899 2.002227
v 0.694358 0.263900 2.002227
v 0.694358 0.363900 2.002227
v 0.694358 0.463900 2.002227
v 0.794358 0.363900 2.002227
v 0.794358 0.463900 2.002227
v 0.894358 0.663899 2.002227
v 0.894358 0.863900 2.002227
v 0.894358 1.363899 2.002227
v 0.894358 1.963899 2.002227
v 1.194358 2.863898 2.002228
v 1.194358 2.963900 2.002228
v 1.294358 2.363898 2.002228
v 1.294358 2.863898 2.002228
v 1.394358 0.663899 2.002227
v 1.394358 0.863900 2.002227
v 1.494358 -0.336101 2.002227
v 1.494358 2.363898 2.002228
v 1.994358 -4.036100 2.002225
v -2.005642 -0.736100 2.002227
v -2.005642 -4.036100 2.002225
v 1.994358 -0.736100 2.002227
v 1.994358 -0.536100 2.002227
v 1.994358 3.763900 2.002229
v 1.894358 -0.736100 1.902227
v -1.905642 -0.536100 1.902227
v -1.905642 -0.736100 1.902227
v 1.894358 -0.536100 1.902227
v -3.005642 0.763901 0.302227
v -3.305642 2.663900 0.302227
v -3.305642 0.363901 0.302227
v -3.005642 2.263901 0.302227
v -2.105643 0.763901 0.302227
v -2.105643 2.263901 0.302227
v -2.005642 0.363901 0.302227
v -2.005642 2.663900 0.302227
v 2.994358 0.763901 0.302227
v 1.994358 0.763901 0.302227
v 1.994358 0.363901 0.302227
v 1.994358 2.263901 0.302227
v 2.994358 2.263901 0.302227
v 1.994358 2.663900 0.302227
v 3.294358 0.363901 0.302227
v 3.294358 2.663900 0.302227
v -3.305642 0.363901 -0.297773
v -3.305642 2.663900 -0.297773
v -2.005642 0.363901 -0.297773
v -2.005642 2.663900 -0.297773
v 1.994358 0.363901 -0.397773
v 1.994358 2.663900 -0.397773
v 3.294358 0.363901 -0.397773
v 3.294358 2.663900 -0.397773
v -1.905642 -0.736099 -1.897774
v -1.905642 -0.536099 -1.897774
v 1.894358 -0.736099 -1.897774
v 1.894358 -0.536099 -1.897774
v -2.005642 -4.036099 -1.997774
v -2.005642 -0.736099 -1.997773
v 1.994358 -4.036099 -1.997774
v 1.994358 -0.736099 -1.997773
v -2.005642 -0.536099 -1.997773
v -2.005642 3.763901 -1.997771
v 1.994358 -0.536099 -1.997773
v 1.994358 3.763901 -1.997771
v -2.005642 -4.036099 -1.997774
v 1.994358 -4.036100 2.002225
v -2.005642 -4.036100 2.002225
v 1.994358 -4.036099 -1.997774
v -1.905642 -0.536100 1.902227
v 1.994358 -0.536100 2.002227
v -2.005642 -0.536100 2.002227
v 1.894358 -0.536100 1.902227
v -1.905642 -0.536099 -1.897774
v 1.894358 -0.536099 -1.897774
v -2.005642 -0.536099 -1.997773
v 1.994358 -0.536099 -1.997773
v -3.305642 0.363901 -0.297773
v -2.005642 0.363901 0.302227
v -3.305642 0.363901 0.302227
v -2.005642 0.363901 -0.297773
v 1.994358 0.363901 -0.397773
v 3.294358 0.363901 0.302227
v 1.994358 0.363901 0.302227
v 3.294358 0.363901 -0.397773
v -2.005642 -0.736100 2.002227
v 1.994358 -0.736100 2.002227
v -1.905642 -0.736100 1.902227
v 1.894358 -0.736100 1.902227
v -1.905642 -0.736099 -1.897774
v 1.894358 -0.736099 -1.897774
v -2.005642 -0.736099 -1.997773
v 1.994358 -0.736099 -1.997773
v -3.305642 2.663900 0.302227
v -2.005642 2.663900 0.302227
v -3.305642 2.663900 -0.297773
v -2.005642 2.663900 -0.297773
v 1.994358 2.663900 0.302227
v 3.294358 2.663900 0.302227
v 1.994358 2.663900 -0.397773
v 3.294358 2.663900 -0.397773
v -2.005642 3.763900 2.002229
v 1.994358 3.763900 2.002229
v -2.005642 3.763901 -1.997771
v 1.994358 3.763901 -1.997771
vt 0.869141 0.500000
vt 0.869141 0.500000
vt 0.869141 0.500000
vt 0.869141 0.500000
vt 0.869141 0.500000
vt 0.869141 0.500000
vt 0.869141 0.500000
vt 0.869141 0.500000
vt 0.869141 0.500000
vt 0.869141 0.500000
vt 0.869141 0.500000
vt 0.869141 0.500000
vt 0.869141 0.500000
vt 0.869141 0.500000
vt 0.869141 0.500000
vt 0.869141 0.500000
vt 0.869141 0.500000
vt 0.869141 0.500000
vt 0.869141 0.500000
vt 0.869141 0.500000
vt 0.869141 0.500000
vt 0.869141 0.500000
vt 0.869141 0.500000
vt 0.869141 0.500000
vt 0.869141 0.500000
vt 0.869141 0.500000
vt 0.869141 0.500000
vt 0.869141 0.500000
vt 0.869141 0.500000
vt 0.869141 0.500000
vt 0.869141 0.500000
vt 0.869141 0.500000
vt 0.869141 0.500000
vt 0.869141 0.500000
vt 0.869141 0.500000
vt 0.869141 0.500000
vt 0.869141 0.500000
vt 0.869141 0.500000
vt 0.869141 0.500000
vt 0.869141 0.500000
vt 0.869141 0.500000
vt 0.869141 0.500000
vt 0.869141 0.500000
vt 0.869141 0.500000
vt 0.869141 0.500000
vt 0.869141 0.500000
vt 0.033203 0.500000
vt 0.033203 0.500000
vt 0.033203 0.500000
vt 0.033203 0.500000
vt 0.869141 0.500000
vt 0.033203 0.500000
vt 0.869141 0.500000
vt 0.033203 0.500000
vt 0.033203 0.500000
vt 0.869141 0.500000
vt 0.869141 0.500000
vt 0.103516 0.500000
vt 0.103516 0.500000
vt 0.103516 0.500000
vt 0.033203 0.500000
vt 0.033203 0.500000
vt 0.033203 0.500000
vt 0.103516 0.500000
vt 0.033203 0.500000
vt 0.033203 0.500000
vt 0.033203 0.500000
vt 0.033203 0.500000
vt 0.033203 0.500000
vt 0.994141 0.500000
vt 0.994141 0.500000
vt 0.994141 0.500000
vt 0.033203 0.500000
vt 0.033203 0.500000
vt 0.994141 0.500000
vt 0.033203 0.500000
vt 0.994141 0.500000
vt 0.994141 0.500000
vt 0.033203 0.500000
vt 0.994141 0.500000
vt 0.994141 0.500000
vt 0.994141 0.500000
vt 0.033203 0.500000
vt 0.033203 0.500000
vt 0.994141 0.500000
vt 0.033203 0.500000
vt 0.869141 0.500000
vt 0.033203 0.500000
vt 0.994141 0.500000
vt 0.994141 0.500000
vt 0.033203 0.500000
vt 0.994141 0.500000
vt 0.033203 0.500000
vt 0.033203 0.500000
vt 0.033203 0.500000
vt 0.033203 0.500000
vt 0.869141 0.500000
vt 0.869141 0.500000
vt 0.033203 0.500000
vt 0.033203 0.500000
vt 0.869141 0.500000
vt 0.869141 0.500000
vt 0.033203 0.500000
vt 0.994141 0.500000
vt 0.033203 0.500000
vt 0.994141 0.500000
vt 0.994141 0.500000
vt 0.994141 0.500000
vt 0.033203 0.500000
vt 0.994141 0.500000
vt 0.994141 0.500000
vt 0.869141 0.500000
vt 0.869141 0.500000
vt 0.033203 0.500000
vt 0.869141 0.500000
vt 0.994141 0.500000
vt 0.033203 0.500000
vt 0.033203 0.500000
vt 0.033203 0.500000
vt 0.033203 0.500000
vt 0.994141 0.500000
vt 0.033203 0.500000
vt 0.869141 0.500000
vt 0.033203 0.500000
vt 0.869141 0.500000
vt 0.033203 0.500000
vt 0.033203 0.500000
vt 0.994141 0.500000
vt 0.033203 0.500000
vt 0.869141 0.500000
vt 0.033203 0.500000
vt 0.869141 0.500000
vt 0.994141 0.500000
vt 0.994141 0.500000
vt 0.033203 0.500000
vt 0.994141 0.500000
vt 0.033203 0.500000
vt 0.033203 0.500000
vt 0.033203 0.500000
vt 0.994141 0.500000
vt 0.033203 0.500000
vt 0.033203 0.500000
vt 0.033203 0.500000
vt 0.994141 0.500000
vt 0.033203 0.500000
vt 0.033203 0.500000
vt 0.994141 0.500000
vt 0.994141 0.500000
vt 0.033203 0.500000
vt 0.994141 0.500000
vt 0.033203 0.500000
vt 0.033203 0.500000
vt 0.994141 0.500000
vt 0.994141 0.500000
vt 0.994141 0.500000
vt 0.033203 0.500000
vt 0.033203 0.500000
vt 0.994141 0.500000
vt 0.033203 0.500000
vt 0.869141 0.500000
vt 0.033203 0.500000
vt 0.033203 0.500000
vt 0.869141 0.500000
vt 0.869141 0.500000
vt 0.033203 0.500000
vt 0.033203 0.500000
vt 0.103516 0.500000
vt 0.103516 0.500000
vt 0.103516 0.500000
vt 0.033203 0.500000
vt 0.103516 0.500000
vt 0.869141 0.500000
vt 0.033203 0.500000
vt 0.033203 0.500000
vt 0.869141 0.500000
vt 0.869141 0.500000
vt 0.869141 0.500000
vt 0.869141 0.500000
vt 0.869141 0.500000
vt 0.869141 0.500000
vt 0.869141 0.500000
vt 0.869141 0.500000
vt 0.869141 0.500000
vt 0.869141 0.500000
vt 0.869141 0.500000
vt 0.869141 0.500000
vt 0.869141 0.500000
vt 0.869141 0.500000
vt 0.869141 0.500000
vt 0.869141 0.500000
vt 0.869141 0.500000
vt 0.033203 0.500000
vt 0.033203 0.500000
vt 0.033203 0.500000
vt 0.869141 0.500000
vt 0.033203 0.500000
vt 0.869141 0.500000
vt 0.869141 0.500000
vt 0.869141 0.500000
vt 0.869141 0.500000
vt 0.869141 0.500000
vt 0.033203 0.500000
vt 0.033203 0.500000
vt 0.033203 0.500000
vt 0.869141 0.500000
vt 0.869141 0.500000
vt 0.869141 0.500000
vt 0.033203 0.500000
vt 0.869141 0.500000
vt 0.869141 0.500000
vt 0.869141 0.500000
vt 0.869141 0.500000
vt 0.869141 0.500000
vt 0.869141 0.500000
vt 0.869141 0.500000
vt 0.869141 0.500000
vt 0.869141 0.500000
vt 0.869141 0.500000
vt 0.869141 0.500000
vt 0.869141 0.500000
vt 0.869141 0.500000
vt 0.869141 0.500000
vt 0.869141 0.500000
vt 0.869141 0.500000
vt 0.869141 0.500000
vt 0.869141 0.500000
vt 0.869141 0.500000
vt 0.869141 0.500000
vt 0.869141 0.500000
vt 0.869141 0.500000
vt 0.869141 0.500000
vt 0.869141 0.500000
vt 0.869141 0.500000
vt 0.869141 0.500000
vt 0.869141 0.500000
vt 0.869141 0.500000
vt 0.869141 0.500000
vt 0.869141 0.500000
vt 0.869141 0.500000
vt 0.869141 0.500000
vt 0.869141 0.500000
vt 0.869141 0.500000
vt 0.869141 0.500000
vt 0.869141 0.500000
vt 0.869141 0.500000
vt 0.869141 0.500000
vt 0.869141 0.500000
vt 0.869141 0.500000
vt 0.869141 0.500000
vt 0.869141 0.500000
vt 0.869141 0.500000
vt 0.869141 0.500000
vt 0.869141 0.500000
vt 0.869141 0.500000
vt 0.869141 0.500000
vt 0.869141 0.500000
vt 0.869141 0.500000
vt 0.869141 0.500000
vt 0.869141 0.500000
vt 0.869141 0.500000
vt 0.869141 0.500000
vt 0.869141 0.500000
vt 0.869141 0.500000
vt 0.869141 0.500000
vt 0.869141 0.500000
vt 0.869141 0.500000
vt 0.869141 0.500000
vt 0.869141 0.500000
vt 0.869141 0.500000
vt 0.869141 0.500000
vn -1.0000 -0.0000 0.0000
vn 1.0000 0.0000 0.0000
vn 0.0000 -0.0000 1.0000
vn 0.0000 0.0000 -1.0000
vn 0.0000 -1.0000 -0.0000
vn 0.0000 1.0000 -0.0000
usemtl palette.004
s 1
f 1/1/1 2/2/1 3/3/1
f 4/4/1 2/2/1 1/1/1
f 5/5/1 6/6/1 7/7/1
f 8/8/1 6/6/1 5/5/1
f 9/9/1 10/10/1 11/11/1
f 12/12/1 10/10/1 9/9/1
f 13/13/1 9/9/1 11/11/1
f 14/14/1 10/10/1 12/12/1
f 15/15/1 13/13/1 11/11/1
f 15/15/1 14/14/1 13/13/1
f 16/16/1 10/10/1 14/14/1
f 16/16/1 14/14/1 15/15/1
f 17/17/1 18/18/1 19/19/1
f 20/20/1 18/18/1 17/17/1
f 21/21/2 22/22/2 23/23/2
f 23/23/2 22/22/2 24/24/2
f 25/25/2 26/26/2 27/27/2
f 27/27/2 26/26/2 28/28/2
f 29/29/2 30/30/2 31/31/2
f 31/31/2 30/30/2 32/32/2
f 29/29/2 31/31/2 33/33/2
f 29/29/2 33/33/2 34/34/2
f 29/29/2 34/34/2 35/35/2
f 32/32/2 30/30/2 36/36/2
f 29/29/2 35/35/2 37/37/2
f 35/35/2 36/36/2 37/37/2
f 36/36/2 30/30/2 38/38/2
f 37/37/2 36/36/2 38/38/2
f 39/39/2 40/40/2 41/41/2
f 41/41/2 40/40/2 42/42/2
f 43/43/3 44/44/3 45/45/3
f 46/46/3 44/44/3 43/43/3
f 47/47/3 46/48/3 43/49/3
f 48/50/3 46/48/3 47/47/3
f 49/51/3 44/44/3 46/46/3
f 49/52/3 46/48/3 48/50/3
f 50/53/3 44/44/3 49/51/3
f 51/54/3 50/55/3 49/52/3
f 51/56/3 44/44/3 50/53/3
f 52/57/3 44/44/3 51/56/3
f 53/58/3 48/59/3 47/60/3
f 53/61/3 47/47/3 43/49/3
f 54/62/3 52/63/3 51/54/3
f 54/64/3 48/59/3 53/58/3
f 54/62/3 49/52/3 48/50/3
f 54/62/3 51/54/3 49/52/3
f 55/65/3 52/63/3 54/62/3
f 56/66/3 52/63/3 55/65/3
f 57/67/3 53/61/3 43/49/3
f 57/67/3 54/62/3 53/61/3
f 57/67/3 55/65/3 54/62/3
f 58/68/3 55/65/3 57/67/3
f 59/69/3 57/67/3 43/49/3
f 60/70/3 58/71/3 57/72/3
f 60/73/3 57/67/3 59/69/3
f 61/74/3 55/65/3 58/68/3
f 61/75/3 58/71/3 60/70/3
f 62/76/3 59/69/3 43/49/3
f 63/77/3 60/70/3 59/78/3
f 63/79/3 59/69/3 62/76/3
f 64/80/3 56/81/3 55/82/3
f 64/83/3 55/65/3 61/74/3
f 64/83/3 61/74/3 60/73/3
f 65/84/3 52/63/3 56/66/3
f 65/85/3 56/81/3 64/80/3
f 66/86/3 52/63/3 65/84/3
f 67/87/3 44/44/3 52/57/3
f 67/88/3 52/63/3 66/86/3
f 68/89/3 60/70/3 63/77/3
f 68/89/3 63/77/3 62/90/3
f 69/91/3 66/86/3 65/84/3
f 69/92/3 60/70/3 68/89/3
f 69/91/3 64/83/3 60/73/3
f 69/91/3 65/84/3 64/83/3
f 70/93/3 69/91/3 68/94/3
f 70/93/3 66/86/3 69/91/3
f 71/95/3 66/86/3 70/93/3
f 72/96/3 66/86/3 71/95/3
f 73/97/3 67/87/3 66/98/3
f 73/99/3 66/86/3 72/96/3
f 74/100/3 72/96/3 71/95/3
f 75/101/3 73/97/3 72/102/3
f 75/103/3 72/96/3 74/100/3
f 76/104/3 68/89/3 62/90/3
f 76/105/3 70/93/3 68/94/3
f 77/106/3 71/107/3 70/108/3
f 77/109/3 70/93/3 76/105/3
f 78/110/3 76/104/3 62/90/3
f 78/110/3 77/106/3 76/104/3
f 79/111/3 71/107/3 77/106/3
f 79/111/3 77/106/3 78/110/3
f 80/112/3 75/101/3 74/113/3
f 80/114/3 74/100/3 71/95/3
f 81/115/3 73/97/3 75/101/3
f 81/115/3 75/101/3 80/112/3
f 82/116/3 71/107/3 79/111/3
f 82/117/3 79/118/3 78/119/3
f 83/120/3 80/114/3 71/95/3
f 83/121/3 71/107/3 82/116/3
f 83/120/3 81/122/3 80/114/3
f 84/123/3 73/97/3 81/115/3
f 84/124/3 81/122/3 83/120/3
f 85/125/3 67/87/3 73/97/3
f 85/125/3 73/97/3 84/123/3
f 86/126/3 82/117/3 78/119/3
f 86/126/3 84/124/3 83/120/3
f 86/126/3 85/127/3 84/124/3
f 86/128/3 78/110/3 62/90/3
f 86/126/3 83/120/3 82/117/3
f 87/129/3 85/127/3 86/126/3
f 88/130/3 67/87/3 85/125/3
f 88/131/3 85/127/3 87/129/3
f 89/132/3 44/44/3 67/87/3
f 89/132/3 67/87/3 88/130/3
f 90/133/3 87/134/3 86/128/3
f 90/135/3 62/76/3 43/49/3
f 90/133/3 86/128/3 62/90/3
f 91/136/3 87/134/3 90/133/3
f 92/137/3 89/138/3 88/131/3
f 92/137/3 88/131/3 87/129/3
f 93/139/3 89/138/3 92/137/3
f 94/140/3 87/134/3 91/136/3
f 94/141/3 91/142/3 90/135/3
f 95/143/3 92/137/3 87/129/3
f 95/144/3 87/134/3 94/140/3
f 96/145/3 92/137/3 95/143/3
f 97/146/3 95/143/3 94/141/3
f 97/147/3 96/148/3 95/144/3
f 98/149/3 92/137/3 96/145/3
f 98/150/3 96/148/3 97/147/3
f 99/151/3 98/149/3 97/146/3
f 99/151/3 92/137/3 98/149/3
f 100/152/3 92/137/3 99/151/3
f 101/153/3 93/154/3 92/155/3
f 101/156/3 92/137/3 100/152/3
f 102/157/3 89/138/3 93/139/3
f 102/158/3 93/154/3 101/153/3
f 103/159/3 101/156/3 100/152/3
f 103/159/3 89/138/3 102/157/3
f 103/159/3 102/157/3 101/156/3
f 104/160/3 44/44/3 89/132/3
f 104/161/3 89/138/3 103/159/3
f 105/162/3 103/159/3 100/152/3
f 106/163/3 104/160/3 103/164/3
f 106/165/3 103/159/3 105/162/3
f 107/166/3 99/151/3 97/146/3
f 107/167/3 100/168/3 99/169/3
f 108/170/3 105/162/3 100/152/3
f 108/171/3 100/168/3 107/167/3
f 109/172/3 43/43/3 45/45/3
f 109/173/3 90/135/3 43/49/3
f 109/173/3 108/170/3 107/166/3
f 109/173/3 107/166/3 97/146/3
f 109/173/3 97/146/3 94/141/3
f 109/173/3 94/141/3 90/135/3
f 110/174/3 105/162/3 108/170/3
f 110/174/3 108/170/3 109/173/3
f 110/175/3 106/163/3 105/176/3
f 111/177/3 112/178/3 113/179/3
f 114/180/3 112/178/3 111/177/3
f 115/181/3 109/172/3 45/45/3
f 115/181/3 110/175/3 109/172/3
f 116/182/3 106/163/3 110/175/3
f 116/182/3 110/175/3 115/181/3
f 116/182/3 44/44/3 104/160/3
f 116/182/3 104/160/3 106/163/3
f 117/183/3 118/184/3 119/185/3
f 120/186/3 118/184/3 117/183/3
f 121/187/3 122/188/3 123/189/3
f 124/190/3 122/188/3 121/187/3
f 125/191/3 121/187/3 123/189/3
f 125/192/3 124/193/3 121/194/3
f 126/195/3 122/188/3 124/190/3
f 126/196/3 124/193/3 125/192/3
f 127/197/3 125/191/3 123/189/3
f 127/197/3 126/195/3 125/191/3
f 128/198/3 122/188/3 126/195/3
f 128/198/3 126/195/3 127/197/3
f 129/199/3 130/200/3 131/201/3
f 129/202/3 132/203/3 130/204/3
f 133/205/3 134/206/3 132/207/3
f 133/208/3 132/203/3 129/202/3
f 135/209/3 129/199/3 131/201/3
f 135/209/3 133/205/3 129/199/3
f 136/210/3 134/206/3 133/205/3
f 136/210/3 133/205/3 135/209/3
f 137/211/4 138/212/4 139/213/4
f 139/213/4 138/212/4 140/214/4
f 141/215/4 142/216/4 143/217/4
f 143/217/4 142/216/4 144/218/4
f 145/219/4 146/220/4 147/221/4
f 147/221/4 146/220/4 148/222/4
f 149/223/4 150/224/4 151/225/4
f 151/225/4 150/224/4 152/226/4
f 153/227/4 154/228/4 155/229/4
f 155/229/4 154/228/4 156/230/4
f 157/231/5 158/232/5 159/233/5
f 160/234/5 158/232/5 157/231/5
f 161/235/5 162/236/5 163/237/5
f 164/238/5 162/236/5 161/235/5
f 165/239/5 161/235/5 163/237/5
f 166/240/5 162/236/5 164/238/5
f 167/241/5 165/239/5 163/237/5
f 167/241/5 166/240/5 165/239/5
f 168/242/5 162/236/5 166/240/5
f 168/242/5 166/240/5 167/241/5
f 169/243/5 170/244/5 171/245/5
f 172/246/5 170/244/5 169/243/5
f 173/247/5 174/248/5 175/249/5
f 176/250/5 174/248/5 173/247/5
f 177/251/6 178/252/6 179/253/6
f 179/253/6 178/252/6 180/254/6
f 177/251/6 179/253/6 181/255/6
f 180/254/6 178/252/6 182/256/6
f 177/251/6 181/255/6 183/257/6
f 181/255/6 182/256/6 183/257/6
f 182/256/6 178/252/6 184/258/6
f 183/257/6 182/256/6 184/258/6
f 185/259/6 186/260/6 187/261/6
f 187/261/6 186/260/6 188/262/6
f 189/263/6 190/264/6 191/265/6
f 191/265/6 190/264/6 192/266/6
f 193/267/6 194/268/6 195/269/6
f 195/269/6 194/268/6 196/270/6
