# Blender v2.80 (sub 75) OBJ File: ''
# www.blender.org
mtllib panda.mtl
o panda.003
v -1.049999 -0.431204 1.039985
v -1.049999 -1.831204 -1.060015
v -1.049999 -1.831204 1.039985
v -1.049999 -0.431204 -1.060015
v -1.049999 -0.231204 1.039985
v -1.049999 -0.231204 -1.060014
v -1.049999 1.768796 1.039986
v -1.049999 -0.131204 -1.060014
v -1.049999 -0.131204 1.039985
v -1.049999 1.768796 -1.060014
v -0.949999 -0.131204 0.939986
v -0.949999 -0.231204 -0.960015
v -0.949999 -0.231204 0.939985
v -0.949999 -0.131204 -0.960014
v -0.749999 1.868796 0.539986
v -0.749999 1.768796 0.339986
v -0.749999 1.768796 0.639986
v -0.749999 1.868796 0.339986
v -0.749999 1.968796 0.639986
v -0.749999 1.968796 0.539986
v -0.649999 1.968796 0.539986
v -0.649999 1.868796 0.439986
v -0.649999 1.868796 0.539986
v -0.649999 1.968796 0.439986
v -0.649999 2.068796 0.639986
v -0.649999 1.968796 0.639986
v -0.649999 2.068796 0.539986
v 0.250001 1.868796 0.539986
v 0.250001 1.768796 0.339986
v 0.250001 1.768796 0.639986
v 0.250001 1.868796 0.339986
v 0.250001 1.968796 0.639986
v 0.250001 1.968796 0.539986
v 0.350001 1.968796 0.539986
v 0.350001 1.868796 0.439986
v 0.350001 1.868796 0.539986
v 0.350001 1.968796 0.439986
v 0.350001 2.068796 0.639986
v 0.350001 1.968796 0.639986
v 0.350001 2.068796 0.539986
v -0.349999 1.868796 0.539986
v -0.349999 1.868796 0.439986
v -0.349999 1.968796 0.539986
v -0.349999 1.968796 0.439986
v -0.349999 1.968796 0.639986
v -0.349999 2.068796 0.639986
v -0.349999 2.068796 0.539986
v -0.249999 1.768796 0.639986
v -0.249999 1.768796 0.339986
v -0.249999 1.868796 0.539986
v -0.249999 1.868796 0.339986
v -0.249999 1.968796 0.639986
v -0.249999 1.968796 0.539986
v 0.650001 1.868796 0.539986
v 0.650001 1.868796 0.439986
v 0.650001 1.968796 0.539986
v 0.650001 1.968796 0.439986
v 0.650001 1.968796 0.639986
v 0.650001 2.068796 0.639986
v 0.650001 2.068796 0.539986
v 0.750001 1.768796 0.639986
v 0.750001 1.768796 0.339986
v 0.750001 1.868796 0.539986
v 0.750001 1.868796 0.339986
v 0.750001 1.968796 0.639986
v 0.750001 1.968796 0.539986
v 0.950001 -0.231204 0.939985
v 0.950001 -0.231204 -0.960015
v 0.950001 -0.131204 0.939986
v 0.950001 -0.131204 -0.960014
v 1.049999 -1.831204 1.039985
v 1.049999 -1.831204 -1.060015
v 1.049999 -0.431204 1.039985
v 1.049999 -0.431204 -1.060015
v 1.049999 -0.231204 1.039985
v 1.049999 -0.231204 -1.060014
v 1.049999 -0.131204 1.039985
v 1.049999 -0.131204 -1.060014
v 1.049999 1.768796 1.039986
v 1.049999 1.768796 -1.060014
v -0.749999 0.668796 1.039986
v -1.049999 1.768796 1.039986
v -1.049999 -0.131204 1.039985
v -0.749999 1.068796 1.039986
v -0.649999 0.568796 1.039986
v -0.649999 0.668796 1.039986
v -0.649999 1.068796 1.039986
v -0.649999 1.168796 1.039986
v -0.549999 1.168796 1.039986
v -0.549999 1.268796 1.039986
v -0.449999 0.568796 1.039986
v -0.449999 0.668796 1.039986
v -0.449999 0.868796 1.039986
v -0.449999 1.068796 1.039986
v -0.349999 0.668796 1.039986
v -0.349999 0.768796 1.039986
v -0.349999 0.868796 1.039986
v -0.349999 1.068796 1.039986
v -0.349999 1.168796 1.039986
v -0.349999 1.268796 1.039986
v -0.249999 0.768796 1.039986
v -0.249999 1.168796 1.039986
v -0.149999 0.568796 1.039986
v -0.149999 0.668796 1.039986
v -0.049999 0.368796 1.039986
v -0.049999 0.568796 1.039986
v 0.050000 0.368796 1.039986
v 0.050000 0.568796 1.039986
v 0.150001 0.568796 1.039986
v 0.150001 0.668796 1.039986
v 0.250001 0.768796 1.039986
v 0.250001 1.168796 1.039986
v 0.350001 0.668796 1.039986
v 0.350001 0.768796 1.039986
v 0.350001 0.868796 1.039986
v 0.350001 1.068796 1.039986
v 0.350001 1.168796 1.039986
v 0.350001 1.268796 1.039986
v 0.450000 0.568796 1.039986
v 0.450000 0.668796 1.039986
v 0.450000 0.868796 1.039986
v 0.450000 1.068796 1.039986
v 0.550000 1.168796 1.039986
v 0.550000 1.268796 1.039986
v 0.650001 0.568796 1.039986
v 0.650001 0.668796 1.039986
v 0.650001 1.068796 1.039986
v 0.650001 1.168796 1.039986
v 0.750001 0.668796 1.039986
v 0.750001 1.068796 1.039986
v 1.049999 -1.831204 1.039985
v -1.049999 -0.431204 1.039985
v -1.049999 -1.831204 1.039985
v 1.049999 -0.431204 1.039985
v -1.049999 -0.231204 1.039985
v 1.049999 -0.231204 1.039985
v 1.049999 -0.131204 1.039985
v 1.049999 1.768796 1.039986
v 0.950001 -0.231204 0.939985
v -0.949999 -0.131204 0.939986
v -0.949999 -0.231204 0.939985
v 0.950001 -0.131204 0.939986
v -0.649999 1.968796 0.639986
v -0.749999 1.968796 0.639986
v -0.749999 1.768796 0.639986
v -0.349999 1.968796 0.639986
v -0.649999 2.068796 0.639986
v -0.349999 2.068796 0.639986
v -0.249999 1.768796 0.639986
v -0.249999 1.968796 0.639986
v 0.350001 1.968796 0.639986
v 0.250001 1.968796 0.639986
v 0.250001 1.768796 0.639986
v 0.650001 1.968796 0.639986
v 0.350001 2.068796 0.639986
v 0.650001 2.068796 0.639986
v 0.750001 1.768796 0.639986
v 0.750001 1.968796 0.639986
v -0.749999 1.868796 0.539986
v -0.749999 1.968796 0.539986
v -0.649999 1.868796 0.539986
v -0.649999 1.968796 0.539986
v -0.649999 2.068796 0.539986
v -0.349999 1.968796 0.539986
v -0.349999 2.068796 0.539986
v -0.349999 1.868796 0.539986
v -0.249999 1.868796 0.539986
v -0.249999 1.968796 0.539986
v 0.250001 1.868796 0.539986
v 0.250001 1.968796 0.539986
v 0.350001 1.868796 0.539986
v 0.350001 1.968796 0.539986
v 0.350001 2.068796 0.539986
v 0.650001 1.968796 0.539986
v 0.650001 2.068796 0.539986
v 0.650001 1.868796 0.539986
v 0.750001 1.868796 0.539986
v 0.750001 1.968796 0.539986
v -0.649999 1.868796 0.439986
v -0.649999 1.968796 0.439986
v -0.349999 1.868796 0.439986
v -0.349999 1.968796 0.439986
v 0.350001 1.868796 0.439986
v 0.350001 1.968796 0.439986
v 0.650001 1.868796 0.439986
v 0.650001 1.968796 0.439986
v -0.749999 1.768796 0.339986
v -0.749999 1.868796 0.339986
v -0.249999 1.768796 0.339986
v -0.249999 1.868796 0.339986
v 0.250001 1.768796 0.339986
v 0.250001 1.868796 0.339986
v 0.750001 1.768796 0.339986
v 0.750001 1.868796 0.339986
v -0.949999 -0.231204 -0.960015
v -0.949999 -0.131204 -0.960014
v 0.950001 -0.231204 -0.960015
v 0.950001 -0.131204 -0.960014
v -1.049999 -1.831204 -1.060015
v -1.049999 -0.431204 -1.060015
v 1.049999 -1.831204 -1.060015
v -1.049999 -0.231204 -1.060014
v 1.049999 -0.431204 -1.060015
v 1.049999 -0.231204 -1.060014
v -1.049999 -0.131204 -1.060014
v -1.049999 1.768796 -1.060014
v 1.049999 -0.131204 -1.060014
v 1.049999 1.768796 -1.060014
v -0.949999 -1.831204 0.939985
v 1.049999 -1.831204 1.039985
v -1.049999 -1.831204 1.039985
v 0.950001 -1.831204 0.939985
v -0.949999 -1.831204 -0.960015
v 0.950001 -1.831204 -0.960015
v -1.049999 -1.831204 -1.060015
v 1.049999 -1.831204 -1.060015
v -0.949999 -0.131204 0.939986
v 1.049999 -0.131204 1.039985
v -1.049999 -0.131204 1.039985
v 0.950001 -0.131204 0.939986
v -0.949999 -0.131204 -0.960014
v 0.950001 -0.131204 -0.960014
v -1.049999 -0.131204 -1.060014
v 1.049999 -0.131204 -1.060014
v -1.049999 -0.231204 1.039985
v 1.049999 -0.231204 1.039985
v -0.949999 -0.231204 0.939985
v 0.950001 -0.231204 0.939985
v -0.949999 -0.231204 -0.960015
v 0.950001 -0.231204 -0.960015
v -1.049999 -0.231204 -1.060014
v 1.049999 -0.231204 -1.060014
v -1.049999 1.768796 1.039986
v 1.049999 1.768796 1.039986
v -0.749999 1.768796 0.639986
v -0.249999 1.768796 0.639986
v 0.250001 1.768796 0.639986
v 0.750001 1.768796 0.639986
v -0.749999 1.768796 0.339986
v -0.249999 1.768796 0.339986
v 0.250001 1.768796 0.339986
v 0.750001 1.768796 0.339986
v -1.049999 1.768796 -1.060014
v 1.049999 1.768796 -1.060014
v -0.749999 1.868796 0.539986
v -0.649999 1.868796 0.539986
v -0.649999 1.868796 0.439986
v -0.349999 1.868796 0.539986
v -0.249999 1.868796 0.539986
v -0.349999 1.868796 0.439986
v 0.250001 1.868796 0.539986
v 0.350001 1.868796 0.539986
v 0.350001 1.868796 0.439986
v 0.650001 1.868796 0.539986
v 0.750001 1.868796 0.539986
v 0.650001 1.868796 0.439986
v -0.749999 1.868796 0.339986
v -0.249999 1.868796 0.339986
v 0.250001 1.868796 0.339986
v 0.750001 1.868796 0.339986
v -0.749999 1.968796 0.639986
v -0.649999 1.968796 0.639986
v -0.749999 1.968796 0.539986
v -0.649999 1.968796 0.539986
v -0.349999 1.968796 0.639986
v -0.249999 1.968796 0.639986
v -0.349999 1.968796 0.539986
v -0.249999 1.968796 0.539986
v 0.250001 1.968796 0.639986
v 0.350001 1.968796 0.639986
v 0.250001 1.968796 0.539986
v 0.350001 1.968796 0.539986
v 0.650001 1.968796 0.639986
v 0.750001 1.968796 0.639986
v 0.650001 1.968796 0.539986
v 0.750001 1.968796 0.539986
v -0.649999 1.968796 0.439986
v -0.349999 1.968796 0.439986
v 0.350001 1.968796 0.439986
v 0.650001 1.968796 0.439986
v -0.649999 2.068796 0.639986
v -0.349999 2.068796 0.639986
v -0.649999 2.068796 0.539986
v -0.349999 2.068796 0.539986
v 0.350001 2.068796 0.639986
v 0.650001 2.068796 0.639986
v 0.350001 2.068796 0.539986
v 0.650001 2.068796 0.539986
vt 0.958984 0.500000
vt 0.958984 0.500000
vt 0.958984 0.500000
vt 0.958984 0.500000
vt 0.994141 0.500000
vt 0.994141 0.500000
vt 0.994141 0.500000
vt 0.994141 0.500000
vt 0.958984 0.500000
vt 0.958984 0.500000
vt 0.958984 0.500000
vt 0.958984 0.500000
vt 0.994141 0.500000
vt 0.994141 0.500000
vt 0.994141 0.500000
vt 0.994141 0.500000
vt 0.994141 0.500000
vt 0.994141 0.500000
vt 0.994141 0.500000
vt 0.994141 0.500000
vt 0.994141 0.500000
vt 0.994141 0.500000
vt 0.994141 0.500000
vt 0.994141 0.500000
vt 0.994141 0.500000
vt 0.994141 0.500000
vt 0.994141 0.500000
vt 0.994141 0.500000
vt 0.994141 0.500000
vt 0.994141 0.500000
vt 0.994141 0.500000
vt 0.994141 0.500000
vt 0.994141 0.500000
vt 0.994141 0.500000
vt 0.994141 0.500000
vt 0.994141 0.500000
vt 0.994141 0.500000
vt 0.994141 0.500000
vt 0.994141 0.500000
vt 0.994141 0.500000
vt 0.994141 0.500000
vt 0.994141 0.500000
vt 0.994141 0.500000
vt 0.994141 0.500000
vt 0.994141 0.500000
vt 0.994141 0.500000
vt 0.994141 0.500000
vt 0.994141 0.500000
vt 0.994141 0.500000
vt 0.994141 0.500000
vt 0.994141 0.500000
vt 0.994141 0.500000
vt 0.994141 0.500000
vt 0.994141 0.500000
vt 0.994141 0.500000
vt 0.994141 0.500000
vt 0.994141 0.500000
vt 0.994141 0.500000
vt 0.994141 0.500000
vt 0.994141 0.500000
vt 0.994141 0.500000
vt 0.994141 0.500000
vt 0.994141 0.500000
vt 0.994141 0.500000
vt 0.994141 0.500000
vt 0.994141 0.500000
vt 0.994141 0.500000
vt 0.994141 0.500000
vt 0.994141 0.500000
vt 0.994141 0.500000
vt 0.994141 0.500000
vt 0.994141 0.500000
vt 0.958984 0.500000
vt 0.958984 0.500000
vt 0.958984 0.500000
vt 0.958984 0.500000
vt 0.994141 0.500000
vt 0.994141 0.500000
vt 0.994141 0.500000
vt 0.994141 0.500000
vt 0.958984 0.500000
vt 0.958984 0.500000
vt 0.958984 0.500000
vt 0.958984 0.500000
vt 0.958984 0.500000
vt 0.958984 0.500000
vt 0.958984 0.500000
vt 0.958984 0.500000
vt 0.958984 0.500000
vt 0.994141 0.500000
vt 0.994141 0.500000
vt 0.994141 0.500000
vt 0.958984 0.500000
vt 0.958984 0.500000
vt 0.994141 0.500000
vt 0.958984 0.500000
vt 0.994141 0.500000
vt 0.994141 0.500000
vt 0.958984 0.500000
vt 0.994141 0.500000
vt 0.958984 0.500000
vt 0.958984 0.500000
vt 0.994141 0.500000
vt 0.994141 0.500000
vt 0.994141 0.500000
vt 0.994141 0.500000
vt 0.994141 0.500000
vt 0.958984 0.500000
vt 0.958984 0.500000
vt 0.994141 0.500000
vt 0.994141 0.500000
vt 0.958984 0.500000
vt 0.958984 0.500000
vt 0.958984 0.500000
vt 0.994141 0.500000
vt 0.994141 0.500000
vt 0.958984 0.500000
vt 0.994141 0.500000
vt 0.958984 0.500000
vt 0.994141 0.500000
vt 0.994141 0.500000
vt 0.958984 0.500000
vt 0.958984 0.500000
vt 0.958984 0.500000
vt 0.958984 0.500000
vt 0.994141 0.500000
vt 0.958984 0.500000
vt 0.958984 0.500000
vt 0.958984 0.500000
vt 0.994141 0.500000
vt 0.994141 0.500000
vt 0.994141 0.500000
vt 0.958984 0.500000
vt 0.958984 0.500000
vt 0.994141 0.500000
vt 0.994141 0.500000
vt 0.994141 0.500000
vt 0.958984 0.500000
vt 0.958984 0.500000
vt 0.994141 0.500000
vt 0.958984 0.500000
vt 0.994141 0.500000
vt 0.958984 0.500000
vt 0.958984 0.500000
vt 0.958984 0.500000
vt 0.994141 0.500000
vt 0.994141 0.500000
vt 0.994141 0.500000
vt 0.958984 0.500000
vt 0.994141 0.500000
vt 0.994141 0.500000
vt 0.958984 0.500000
vt 0.994141 0.500000
vt 0.958984 0.500000
vt 0.958984 0.500000
vt 0.994141 0.500000
vt 0.994141 0.500000
vt 0.958984 0.500000
vt 0.958984 0.500000
vt 0.958984 0.500000
vt 0.958984 0.500000
vt 0.994141 0.500000
vt 0.994141 0.500000
vt 0.958984 0.500000
vt 0.994141 0.500000
vt 0.994141 0.500000
vt 0.994141 0.500000
vt 0.958984 0.500000
vt 0.994141 0.500000
vt 0.958984 0.500000
vt 0.994141 0.500000
vt 0.994141 0.500000
vt 0.994141 0.500000
vt 0.958984 0.500000
vt 0.958984 0.500000
vt 0.994141 0.500000
vt 0.994141 0.500000
vt 0.958984 0.500000
vt 0.958984 0.500000
vt 0.958984 0.500000
vt 0.958984 0.500000
vt 0.994141 0.500000
vt 0.958984 0.500000
vt 0.958984 0.500000
vt 0.958984 0.500000
vt 0.994141 0.500000
vt 0.994141 0.500000
vt 0.994141 0.500000
vt 0.958984 0.500000
vt 0.994141 0.500000
vt 0.958984 0.500000
vt 0.958984 0.500000
vt 0.994141 0.500000
vt 0.994141 0.500000
vt 0.994141 0.500000
vt 0.994141 0.500000
vt 0.994141 0.500000
vt 0.994141 0.500000
vt 0.994141 0.500000
vt 0.994141 0.500000
vt 0.994141 0.500000
vt 0.994141 0.500000
vt 0.994141 0.500000
vt 0.994141 0.500000
vt 0.994141 0.500000
vt 0.994141 0.500000
vt 0.994141 0.500000
vt 0.994141 0.500000
vt 0.994141 0.500000
vt 0.994141 0.500000
vt 0.994141 0.500000
vt 0.994141 0.500000
vt 0.994141 0.500000
vt 0.994141 0.500000
vt 0.994141 0.500000
vt 0.994141 0.500000
vt 0.994141 0.500000
vt 0.994141 0.500000
vt 0.994141 0.500000
vt 0.994141 0.500000
vt 0.994141 0.500000
vt 0.994141 0.500000
vt 0.994141 0.500000
vt 0.994141 0.500000
vt 0.994141 0.500000
vt 0.994141 0.500000
vt 0.994141 0.500000
vt 0.994141 0.500000
vt 0.994141 0.500000
vt 0.994141 0.500000
vt 0.994141 0.500000
vt 0.994141 0.500000
vt 0.994141 0.500000
vt 0.994141 0.500000
vt 0.994141 0.500000
vt 0.994141 0.500000
vt 0.994141 0.500000
vt 0.994141 0.500000
vt 0.994141 0.500000
vt 0.994141 0.500000
vt 0.994141 0.500000
vt 0.994141 0.500000
vt 0.994141 0.500000
vt 0.994141 0.500000
vt 0.994141 0.500000
vt 0.994141 0.500000
vt 0.994141 0.500000
vt 0.994141 0.500000
vt 0.994141 0.500000
vt 0.994141 0.500000
vt 0.994141 0.500000
vt 0.994141 0.500000
vt 0.958984 0.500000
vt 0.958984 0.500000
vt 0.958984 0.500000
vt 0.994141 0.500000
vt 0.994141 0.500000
vt 0.994141 0.500000
vt 0.958984 0.500000
vt 0.994141 0.500000
vt 0.958984 0.500000
vt 0.958984 0.500000
vt 0.958984 0.500000
vt 0.958984 0.500000
vt 0.958984 0.500000
vt 0.958984 0.500000
vt 0.958984 0.500000
vt 0.958984 0.500000
vt 0.958984 0.500000
vt 0.306641 0.500000
vt 0.306641 0.500000
vt 0.306641 0.500000
vt 0.958984 0.500000
vt 0.306641 0.500000
vt 0.958984 0.500000
vt 0.958984 0.500000
vt 0.958984 0.500000
vt 0.958984 0.500000
vt 0.958984 0.500000
vt 0.958984 0.500000
vt 0.958984 0.500000
vt 0.958984 0.500000
vt 0.958984 0.500000
vt 0.958984 0.500000
vt 0.994141 0.500000
vt 0.994141 0.500000
vt 0.994141 0.500000
vt 0.994141 0.500000
vt 0.994141 0.500000
vt 0.994141 0.500000
vt 0.994141 0.500000
vt 0.994141 0.500000
vt 0.958984 0.500000
vt 0.958984 0.500000
vt 0.958984 0.500000
vt 0.958984 0.500000
vt 0.958984 0.500000
vt 0.958984 0.500000
vt 0.958984 0.500000
vt 0.958984 0.500000
vt 0.958984 0.500000
vt 0.958984 0.500000
vt 0.958984 0.500000
vt 0.958984 0.500000
vt 0.994141 0.500000
vt 0.994141 0.500000
vt 0.994141 0.500000
vt 0.994141 0.500000
vt 0.994141 0.500000
vt 0.994141 0.500000
vt 0.994141 0.500000
vt 0.994141 0.500000
vt 0.994141 0.500000
vt 0.994141 0.500000
vt 0.994141 0.500000
vt 0.994141 0.500000
vt 0.994141 0.500000
vt 0.994141 0.500000
vt 0.994141 0.500000
vt 0.994141 0.500000
vt 0.994141 0.500000
vt 0.994141 0.500000
vt 0.994141 0.500000
vt 0.994141 0.500000
vt 0.994141 0.500000
vt 0.994141 0.500000
vt 0.994141 0.500000
vt 0.994141 0.500000
vt 0.994141 0.500000
vt 0.994141 0.500000
vt 0.994141 0.500000
vt 0.994141 0.500000
vt 0.994141 0.500000
vt 0.994141 0.500000
vt 0.994141 0.500000
vt 0.994141 0.500000
vt 0.994141 0.500000
vt 0.994141 0.500000
vt 0.994141 0.500000
vt 0.994141 0.500000
vt 0.994141 0.500000
vt 0.994141 0.500000
vt 0.994141 0.500000
vt 0.994141 0.500000
vt 0.994141 0.500000
vt 0.994141 0.500000
vt 0.994141 0.500000
vt 0.994141 0.500000
vn -1.0000 0.0000 0.0000
vn 1.0000 0.0000 0.0000
vn -0.0000 -0.0000 1.0000
vn 0.0000 0.0000 -1.0000
vn -0.0000 -1.0000 -0.0000
vn 0.0000 1.0000 0.0000
usemtl palette.005
s 1
f 1/1/1 2/2/1 3/3/1
f 4/4/1 2/2/1 1/1/1
f 5/5/1 4/6/1 1/7/1
f 6/8/1 4/6/1 5/5/1
f 7/9/1 8/10/1 9/11/1
f 10/12/1 8/10/1 7/9/1
f 11/13/1 12/14/1 13/15/1
f 14/16/1 12/14/1 11/13/1
f 15/17/1 16/18/1 17/19/1
f 18/20/1 16/18/1 15/17/1
f 19/21/1 15/17/1 17/19/1
f 20/22/1 15/17/1 19/21/1
f 21/23/1 22/24/1 23/25/1
f 24/26/1 22/24/1 21/23/1
f 25/27/1 21/23/1 26/28/1
f 27/29/1 21/23/1 25/27/1
f 28/30/1 29/31/1 30/32/1
f 31/33/1 29/31/1 28/30/1
f 32/34/1 28/30/1 30/32/1
f 33/35/1 28/30/1 32/34/1
f 34/36/1 35/37/1 36/38/1
f 37/39/1 35/37/1 34/36/1
f 38/40/1 34/36/1 39/41/1
f 40/42/1 34/36/1 38/40/1
f 41/43/2 42/44/2 43/45/2
f 43/45/2 42/44/2 44/46/2
f 45/47/2 43/45/2 46/48/2
f 46/48/2 43/45/2 47/49/2
f 48/50/2 49/51/2 50/52/2
f 50/52/2 49/51/2 51/53/2
f 48/50/2 50/52/2 52/54/2
f 52/54/2 50/52/2 53/55/2
f 54/56/2 55/57/2 56/58/2
f 56/58/2 55/57/2 57/59/2
f 58/60/2 56/58/2 59/61/2
f 59/61/2 56/58/2 60/62/2
f 61/63/2 62/64/2 63/65/2
f 63/65/2 62/64/2 64/66/2
f 61/63/2 63/65/2 65/67/2
f 65/67/2 63/65/2 66/68/2
f 67/69/2 68/70/2 69/71/2
f 69/71/2 68/70/2 70/72/2
f 71/73/2 72/74/2 73/75/2
f 73/75/2 72/74/2 74/76/2
f 73/77/2 74/78/2 75/79/2
f 75/79/2 74/78/2 76/80/2
f 77/81/2 78/82/2 79/83/2
f 79/83/2 78/82/2 80/84/2
f 81/85/3 82/86/3 83/87/3
f 84/88/3 82/86/3 81/85/3
f 85/89/3 81/85/3 83/87/3
f 86/90/3 84/91/3 81/92/3
f 86/93/3 81/85/3 85/89/3
f 87/94/3 82/86/3 84/88/3
f 87/95/3 84/91/3 86/90/3
f 88/96/3 82/86/3 87/94/3
f 89/97/3 86/90/3 85/98/3
f 89/99/3 82/86/3 88/96/3
f 89/97/3 88/100/3 87/95/3
f 89/97/3 87/95/3 86/90/3
f 90/101/3 82/86/3 89/99/3
f 91/102/3 85/89/3 83/87/3
f 91/103/3 89/97/3 85/98/3
f 91/103/3 90/104/3 89/97/3
f 92/105/3 90/104/3 91/103/3
f 93/106/3 90/104/3 92/105/3
f 94/107/3 90/104/3 93/106/3
f 95/108/3 92/109/3 91/102/3
f 95/110/3 93/106/3 92/105/3
f 96/111/3 93/106/3 95/110/3
f 97/112/3 94/113/3 93/114/3
f 97/115/3 93/106/3 96/111/3
f 98/116/3 90/104/3 94/107/3
f 98/117/3 94/113/3 97/112/3
f 99/118/3 90/104/3 98/116/3
f 100/119/3 82/86/3 90/101/3
f 100/120/3 90/104/3 99/118/3
f 101/121/3 99/118/3 98/116/3
f 101/121/3 97/115/3 96/111/3
f 101/122/3 96/123/3 95/108/3
f 101/121/3 98/116/3 97/115/3
f 102/124/3 100/119/3 99/125/3
f 102/126/3 99/118/3 101/121/3
f 103/127/3 91/102/3 83/87/3
f 103/127/3 101/122/3 95/108/3
f 103/127/3 102/124/3 101/122/3
f 103/127/3 95/108/3 91/102/3
f 104/128/3 102/124/3 103/127/3
f 105/129/3 103/127/3 83/87/3
f 106/130/3 104/131/3 103/132/3
f 106/133/3 103/127/3 105/129/3
f 107/134/3 105/129/3 83/87/3
f 107/135/3 106/130/3 105/136/3
f 108/137/3 104/131/3 106/130/3
f 108/137/3 106/130/3 107/135/3
f 109/138/3 108/139/3 107/134/3
f 109/140/3 104/131/3 108/137/3
f 110/141/3 102/124/3 104/128/3
f 110/142/3 104/131/3 109/140/3
f 111/143/3 110/141/3 109/138/3
f 111/143/3 102/124/3 110/141/3
f 112/144/3 100/119/3 102/124/3
f 112/144/3 102/124/3 111/143/3
f 113/145/3 111/143/3 109/138/3
f 114/146/3 112/147/3 111/148/3
f 114/149/3 111/143/3 113/145/3
f 115/150/3 112/147/3 114/146/3
f 116/151/3 112/147/3 115/150/3
f 117/152/3 100/119/3 112/144/3
f 117/153/3 112/147/3 116/151/3
f 118/154/3 82/86/3 100/119/3
f 118/154/3 100/119/3 117/152/3
f 119/155/3 109/138/3 107/134/3
f 119/155/3 113/145/3 109/138/3
f 120/156/3 114/146/3 113/157/3
f 120/158/3 113/145/3 119/155/3
f 120/156/3 115/150/3 114/146/3
f 121/159/3 116/160/3 115/161/3
f 121/162/3 115/150/3 120/156/3
f 122/163/3 117/153/3 116/151/3
f 122/164/3 116/160/3 121/159/3
f 122/163/3 118/165/3 117/153/3
f 123/166/3 121/162/3 120/156/3
f 123/166/3 118/165/3 122/163/3
f 123/166/3 122/163/3 121/162/3
f 123/166/3 120/156/3 119/167/3
f 124/168/3 82/86/3 118/154/3
f 124/169/3 118/165/3 123/166/3
f 125/170/3 119/155/3 107/134/3
f 125/171/3 123/166/3 119/167/3
f 126/172/3 123/166/3 125/171/3
f 127/173/3 123/166/3 126/172/3
f 128/174/3 124/168/3 123/175/3
f 128/176/3 123/166/3 127/173/3
f 129/177/3 127/173/3 126/172/3
f 129/178/3 126/179/3 125/170/3
f 130/180/3 128/174/3 127/181/3
f 130/182/3 127/173/3 129/177/3
f 131/183/3 132/184/3 133/185/3
f 134/186/3 135/187/3 132/188/3
f 134/189/3 132/184/3 131/183/3
f 136/190/3 135/187/3 134/186/3
f 137/191/3 107/134/3 83/87/3
f 137/191/3 125/170/3 107/134/3
f 137/191/3 129/178/3 125/170/3
f 137/191/3 130/180/3 129/178/3
f 138/192/3 128/174/3 130/180/3
f 138/192/3 130/180/3 137/191/3
f 138/192/3 82/86/3 124/168/3
f 138/192/3 124/168/3 128/174/3
f 139/193/3 140/194/3 141/195/3
f 142/196/3 140/194/3 139/193/3
f 143/197/3 144/198/3 145/199/3
f 146/200/3 143/197/3 145/199/3
f 146/200/3 147/201/3 143/197/3
f 148/202/3 147/201/3 146/200/3
f 149/203/3 146/200/3 145/199/3
f 150/204/3 146/200/3 149/203/3
f 151/205/3 152/206/3 153/207/3
f 154/208/3 151/205/3 153/207/3
f 154/208/3 155/209/3 151/205/3
f 156/210/3 155/209/3 154/208/3
f 157/211/3 154/208/3 153/207/3
f 158/212/3 154/208/3 157/211/3
f 159/213/4 160/214/4 161/215/4
f 161/215/4 160/214/4 162/216/4
f 162/216/4 163/217/4 164/218/4
f 164/218/4 163/217/4 165/219/4
f 166/220/4 164/218/4 167/221/4
f 167/221/4 164/218/4 168/222/4
f 169/223/4 170/224/4 171/225/4
f 171/225/4 170/224/4 172/226/4
f 172/226/4 173/227/4 174/228/4
f 174/228/4 173/227/4 175/229/4
f 176/230/4 174/228/4 177/231/4
f 177/231/4 174/228/4 178/232/4
f 179/233/4 180/234/4 181/235/4
f 181/235/4 180/234/4 182/236/4
f 183/237/4 184/238/4 185/239/4
f 185/239/4 184/238/4 186/240/4
f 187/241/4 188/242/4 189/243/4
f 189/243/4 188/242/4 190/244/4
f 191/245/4 192/246/4 193/247/4
f 193/247/4 192/246/4 194/248/4
f 195/249/4 196/250/4 197/251/4
f 197/251/4 196/250/4 198/252/4
f 199/253/4 200/254/4 201/255/4
f 200/256/4 202/257/4 203/258/4
f 201/255/4 200/254/4 203/259/4
f 203/258/4 202/257/4 204/260/4
f 205/261/4 206/262/4 207/263/4
f 207/263/4 206/262/4 208/264/4
f 209/265/5 210/266/5 211/267/5
f 212/268/5 210/266/5 209/265/5
f 213/269/5 209/265/5 211/267/5
f 213/270/5 212/271/5 209/272/5
f 214/273/5 210/266/5 212/268/5
f 214/274/5 212/271/5 213/270/5
f 215/275/5 213/269/5 211/267/5
f 215/275/5 214/273/5 213/269/5
f 216/276/5 210/266/5 214/273/5
f 216/276/5 214/273/5 215/275/5
f 217/277/5 218/278/5 219/279/5
f 220/280/5 218/278/5 217/277/5
f 221/281/5 217/277/5 219/279/5
f 222/282/5 218/278/5 220/280/5
f 223/283/5 221/281/5 219/279/5
f 223/283/5 222/282/5 221/281/5
f 224/284/5 218/278/5 222/282/5
f 224/284/5 222/282/5 223/283/5
f 225/285/6 226/286/6 227/287/6
f 227/287/6 226/286/6 228/288/6
f 225/285/6 227/287/6 229/289/6
f 228/288/6 226/286/6 230/290/6
f 225/285/6 229/289/6 231/291/6
f 229/289/6 230/290/6 231/291/6
f 230/290/6 226/286/6 232/292/6
f 231/291/6 230/290/6 232/292/6
f 233/293/6 234/294/6 235/295/6
f 235/295/6 234/294/6 236/296/6
f 236/296/6 234/294/6 237/297/6
f 237/297/6 234/294/6 238/298/6
f 233/293/6 235/295/6 239/299/6
f 236/296/6 237/297/6 240/300/6
f 240/300/6 237/297/6 241/301/6
f 238/298/6 234/294/6 242/302/6
f 240/300/6 241/301/6 243/303/6
f 241/301/6 242/302/6 243/303/6
f 233/293/6 239/299/6 243/303/6
f 239/299/6 240/300/6 243/303/6
f 242/302/6 234/294/6 244/304/6
f 243/303/6 242/302/6 244/304/6
f 245/305/6 246/306/6 247/307/6
f 248/308/6 249/309/6 250/310/6
f 251/311/6 252/312/6 253/313/6
f 254/314/6 255/315/6 256/316/6
f 245/305/6 247/307/6 257/317/6
f 247/307/6 250/310/6 257/317/6
f 250/310/6 249/309/6 258/318/6
f 257/317/6 250/310/6 258/318/6
f 251/311/6 253/313/6 259/319/6
f 253/313/6 256/316/6 259/319/6
f 256/316/6 255/315/6 260/320/6
f 259/319/6 256/316/6 260/320/6
f 261/321/6 262/322/6 263/323/6
f 263/323/6 262/322/6 264/324/6
f 265/325/6 266/326/6 267/327/6
f 267/327/6 266/326/6 268/328/6
f 269/329/6 270/330/6 271/331/6
f 271/331/6 270/330/6 272/332/6
f 273/333/6 274/334/6 275/335/6
f 275/335/6 274/334/6 276/336/6
f 264/324/6 267/327/6 277/337/6
f 277/337/6 267/327/6 278/338/6
f 272/332/6 275/335/6 279/339/6
f 279/339/6 275/335/6 280/340/6
f 281/341/6 282/342/6 283/343/6
f 283/343/6 282/342/6 284/344/6
f 285/345/6 286/346/6 287/347/6
f 287/347/6 286/346/6 288/348/6
