# Blender v2.80 (sub 75) OBJ File: ''
# www.blender.org
mtllib penguin.mtl
o penguin
v -1.050000 -0.194382 1.050000
v -1.050000 -1.794381 -1.050000
v -1.050000 -1.794381 1.050000
v -1.050000 -0.194381 -1.050000
v -1.050000 1.805618 1.050000
v -1.050000 -0.094381 -1.050000
v -1.050000 -0.094382 1.050000
v -1.050000 1.805619 -1.050000
v -0.950000 -0.094382 0.950000
v -0.950000 -0.194381 -0.950000
v -0.950000 -0.194382 0.950000
v -0.950000 -0.094381 -0.950000
v 0.950000 -0.194382 0.950000
v 0.950000 -0.194381 -0.950000
v 0.950000 -0.094382 0.950000
v 0.950000 -0.094381 -0.950000
v 1.050000 -1.794381 1.050000
v 1.050000 -1.794381 -1.050000
v 1.050000 -0.194382 1.050000
v 1.050000 -0.194381 -1.050000
v 1.050000 -0.094382 1.050000
v 1.050000 -0.094381 -1.050000
v 1.050000 1.805618 1.050000
v 1.050000 1.805619 -1.050000
v -0.950000 -1.794381 1.050000
v -1.050000 -0.194382 1.050000
v -1.050000 -1.794381 1.050000
v -0.950000 -0.494382 1.050000
v -0.950000 -0.094382 1.050000
v -1.050000 1.805618 1.050000
v -1.050000 -0.094382 1.050000
v -0.950000 1.205619 1.050000
v -0.850000 -0.494382 1.050000
v -0.850000 -0.294382 1.050000
v -0.850000 1.205619 1.050000
v -0.850000 1.305618 1.050000
v -0.750000 -0.294382 1.050000
v -0.750000 -0.194382 1.050000
v -0.450000 0.505619 1.050000
v -0.450000 0.905618 1.050000
v -0.450000 1.205619 1.050000
v -0.450000 1.305618 1.050000
v -0.350000 0.505619 1.050000
v -0.350000 0.905618 1.050000
v -0.250000 0.405618 1.050000
v -0.250000 0.505619 1.050000
v -0.250000 1.105619 1.050000
v -0.250000 1.205619 1.050000
v -0.150000 1.005619 1.050000
v -0.150000 1.105619 1.050000
v -0.050000 0.905618 1.050000
v -0.050000 1.005619 1.050000
v 0.050000 0.905618 1.050000
v 0.050000 1.005619 1.050000
v 0.150000 1.005619 1.050000
v 0.150000 1.105619 1.050000
v 0.250000 0.405618 1.050000
v 0.250000 0.505619 1.050000
v 0.250000 1.105619 1.050000
v 0.250000 1.205619 1.050000
v 0.350000 0.505619 1.050000
v 0.350000 0.905618 1.050000
v 0.450000 0.505619 1.050000
v 0.450000 0.905618 1.050000
v 0.450000 1.205619 1.050000
v 0.450000 1.305618 1.050000
v 0.750000 -0.294382 1.050000
v 0.750000 -0.194382 1.050000
v 0.850000 -0.494382 1.050000
v 0.850000 -0.294382 1.050000
v 0.850000 1.205619 1.050000
v 0.850000 1.305618 1.050000
v 0.950000 -1.794381 1.050000
v 0.950000 -0.494382 1.050000
v 0.950000 -0.094382 1.050000
v 0.950000 1.205619 1.050000
v 1.050000 -1.794381 1.050000
v 1.050000 -0.194382 1.050000
v 1.050000 -0.094382 1.050000
v 1.050000 1.805618 1.050000
v -0.850000 -0.194382 0.950000
v -0.950000 -0.094382 0.950000
v -0.950000 -0.194382 0.950000
v -0.850000 -0.094382 0.950000
v -0.750000 -0.194382 0.950000
v 0.750000 -0.194382 0.950000
v 0.850000 -0.194382 0.950000
v 0.850000 -0.094382 0.950000
v 0.950000 -0.194382 0.950000
v 0.950000 -0.094382 0.950000
v -0.950000 -0.194381 -0.950000
v -0.950000 -0.094381 -0.950000
v 0.950000 -0.194381 -0.950000
v 0.950000 -0.094381 -0.950000
v -1.050000 -1.794381 -1.050000
v -1.050000 -0.194381 -1.050000
v 1.050000 -1.794381 -1.050000
v 1.050000 -0.194381 -1.050000
v -1.050000 -0.094381 -1.050000
v -1.050000 1.805619 -1.050000
v 1.050000 -0.094381 -1.050000
v 1.050000 1.805619 -1.050000
v -0.950000 -1.794381 -0.950001
v -0.950000 -1.794381 1.050000
v -1.050000 -1.794381 1.050000
v 0.950000 -1.794381 1.050000
v 0.950000 -1.794381 -0.950001
v 1.050000 -1.794381 1.050000
v -1.050000 -1.794381 -1.050000
v 1.050000 -1.794381 -1.050000
v -0.950000 -0.094382 0.950000
v -0.950000 -0.094382 1.050000
v -1.050000 -0.094382 1.050000
v 0.950000 -0.094382 1.050000
v -0.850000 -0.094382 0.950000
v 0.850000 -0.094382 0.950000
v 0.950000 -0.094382 0.950000
v 1.050000 -0.094382 1.050000
v -0.950000 -0.094381 -0.950000
v 0.950000 -0.094381 -0.950000
v -1.050000 -0.094381 -1.050000
v 1.050000 -0.094381 -1.050000
v -1.050000 -0.194382 1.050000
v -0.750000 -0.194382 1.050000
v -0.950000 -0.194382 0.950000
v -0.850000 -0.194382 0.950000
v 0.750000 -0.194382 1.050000
v -0.750000 -0.194382 0.950000
v 1.050000 -0.194382 1.050000
v 0.750000 -0.194382 0.950000
v 0.850000 -0.194382 0.950000
v 0.950000 -0.194382 0.950000
v -0.950000 -0.194381 -0.950000
v 0.950000 -0.194381 -0.950000
v -1.050000 -0.194381 -1.050000
v 1.050000 -0.194381 -1.050000
v -1.050000 1.805618 1.050000
v 1.050000 1.805618 1.050000
v -1.050000 1.805619 -1.050000
v 1.050000 1.805619 -1.050000
vt 0.994141 0.500000
vt 0.994141 0.500000
vt 0.994141 0.500000
vt 0.994141 0.500000
vt 0.994141 0.500000
vt 0.994141 0.500000
vt 0.994141 0.500000
vt 0.994141 0.500000
vt 0.994141 0.500000
vt 0.994141 0.500000
vt 0.994141 0.500000
vt 0.994141 0.500000
vt 0.994141 0.500000
vt 0.994141 0.500000
vt 0.994141 0.500000
vt 0.994141 0.500000
vt 0.994141 0.500000
vt 0.994141 0.500000
vt 0.994141 0.500000
vt 0.994141 0.500000
vt 0.994141 0.500000
vt 0.994141 0.500000
vt 0.994141 0.500000
vt 0.994141 0.500000
vt 0.994141 0.500000
vt 0.994141 0.500000
vt 0.994141 0.500000
vt 0.994141 0.500000
vt 0.994141 0.500000
vt 0.994141 0.500000
vt 0.994141 0.500000
vt 0.994141 0.500000
vt 0.994141 0.500000
vt 0.958984 0.500000
vt 0.958984 0.500000
vt 0.958984 0.500000
vt 0.994141 0.500000
vt 0.994141 0.500000
vt 0.958984 0.500000
vt 0.958984 0.500000
vt 0.958984 0.500000
vt 0.994141 0.500000
vt 0.994141 0.500000
vt 0.958984 0.500000
vt 0.958984 0.500000
vt 0.994141 0.500000
vt 0.958984 0.500000
vt 0.958984 0.500000
vt 0.958984 0.500000
vt 0.958984 0.500000
vt 0.994141 0.500000
vt 0.958984 0.500000
vt 0.958984 0.500000
vt 0.994141 0.500000
vt 0.994141 0.500000
vt 0.994141 0.500000
vt 0.958984 0.500000
vt 0.994141 0.500000
vt 0.958984 0.500000
vt 0.958984 0.500000
vt 0.958984 0.500000
vt 0.994141 0.500000
vt 0.994141 0.500000
vt 0.958984 0.500000
vt 0.958984 0.500000
vt 0.994141 0.500000
vt 0.994141 0.500000
vt 0.958984 0.500000
vt 0.958984 0.500000
vt 0.994141 0.500000
vt 0.994141 0.500000
vt 0.958984 0.500000
vt 0.958984 0.500000
vt 0.994141 0.500000
vt 0.994141 0.500000
vt 0.994141 0.500000
vt 0.958984 0.500000
vt 0.958984 0.500000
vt 0.994141 0.500000
vt 0.994141 0.500000
vt 0.044922 0.500000
vt 0.044922 0.500000
vt 0.044922 0.500000
vt 0.958984 0.500000
vt 0.958984 0.500000
vt 0.958984 0.500000
vt 0.044922 0.500000
vt 0.994141 0.500000
vt 0.958984 0.500000
vt 0.994141 0.500000
vt 0.958984 0.500000
vt 0.958984 0.500000
vt 0.958984 0.500000
vt 0.958984 0.500000
vt 0.994141 0.500000
vt 0.994141 0.500000
vt 0.994141 0.500000
vt 0.958984 0.500000
vt 0.994141 0.500000
vt 0.994141 0.500000
vt 0.958984 0.500000
vt 0.994141 0.500000
vt 0.958984 0.500000
vt 0.958984 0.500000
vt 0.958984 0.500000
vt 0.958984 0.500000
vt 0.994141 0.500000
vt 0.994141 0.500000
vt 0.994141 0.500000
vt 0.958984 0.500000
vt 0.958984 0.500000
vt 0.958984 0.500000
vt 0.994141 0.500000
vt 0.958984 0.500000
vt 0.958984 0.500000
vt 0.994141 0.500000
vt 0.994141 0.500000
vt 0.958984 0.500000
vt 0.958984 0.500000
vt 0.994141 0.500000
vt 0.994141 0.500000
vt 0.958984 0.500000
vt 0.994141 0.500000
vt 0.994141 0.500000
vt 0.994141 0.500000
vt 0.994141 0.500000
vt 0.994141 0.500000
vt 0.994141 0.500000
vt 0.994141 0.500000
vt 0.994141 0.500000
vt 0.994141 0.500000
vt 0.994141 0.500000
vt 0.958984 0.500000
vt 0.958984 0.500000
vt 0.958984 0.500000
vt 0.958984 0.500000
vt 0.958984 0.500000
vt 0.958984 0.500000
vt 0.994141 0.500000
vt 0.994141 0.500000
vt 0.994141 0.500000
vt 0.994141 0.500000
vt 0.994141 0.500000
vt 0.994141 0.500000
vt 0.994141 0.500000
vt 0.994141 0.500000
vt 0.994141 0.500000
vt 0.994141 0.500000
vt 0.994141 0.500000
vt 0.994141 0.500000
vt 0.994141 0.500000
vt 0.994141 0.500000
vt 0.994141 0.500000
vt 0.994141 0.500000
vt 0.994141 0.500000
vt 0.994141 0.500000
vt 0.994141 0.500000
vt 0.958984 0.500000
vt 0.958984 0.500000
vt 0.958984 0.500000
vt 0.994141 0.500000
vt 0.994141 0.500000
vt 0.994141 0.500000
vt 0.958984 0.500000
vt 0.994141 0.500000
vt 0.994141 0.500000
vt 0.994141 0.500000
vt 0.994141 0.500000
vt 0.994141 0.500000
vt 0.958984 0.500000
vt 0.958984 0.500000
vt 0.958984 0.500000
vt 0.958984 0.500000
vt 0.958984 0.500000
vt 0.994141 0.500000
vt 0.994141 0.500000
vt 0.994141 0.500000
vt 0.958984 0.500000
vt 0.994141 0.500000
vt 0.994141 0.500000
vt 0.994141 0.500000
vt 0.994141 0.500000
vt 0.994141 0.500000
vt 0.994141 0.500000
vt 0.994141 0.500000
vt 0.994141 0.500000
vt 0.958984 0.500000
vt 0.958984 0.500000
vt 0.958984 0.500000
vt 0.994141 0.500000
vt 0.994141 0.500000
vt 0.994141 0.500000
vt 0.994141 0.500000
vt 0.958984 0.500000
vt 0.994141 0.500000
vt 0.994141 0.500000
vt 0.994141 0.500000
vt 0.994141 0.500000
vt 0.994141 0.500000
vt 0.994141 0.500000
vt 0.994141 0.500000
vt 0.994141 0.500000
vt 0.994141 0.500000
vt 0.994141 0.500000
vn -1.0000 -0.0000 0.0000
vn 1.0000 0.0000 0.0000
vn 0.0000 -0.0000 1.0000
vn 0.0000 0.0000 -1.0000
vn 0.0000 -1.0000 -0.0000
vn 0.0000 1.0000 0.0000
usemtl palette.002
s 1
f 1/1/1 2/2/1 3/3/1
f 4/4/1 2/2/1 1/1/1
f 5/5/1 6/6/1 7/7/1
f 8/8/1 6/6/1 5/5/1
f 9/9/1 10/10/1 11/11/1
f 12/12/1 10/10/1 9/9/1
f 13/13/2 14/14/2 15/15/2
f 15/15/2 14/14/2 16/16/2
f 17/17/2 18/18/2 19/19/2
f 19/19/2 18/18/2 20/20/2
f 21/21/2 22/22/2 23/23/2
f 23/23/2 22/22/2 24/24/2
f 25/25/3 26/26/3 27/27/3
f 28/28/3 26/26/3 25/25/3
f 29/29/3 30/30/3 31/31/3
f 32/32/3 30/30/3 29/29/3
f 33/33/3 26/26/3 28/28/3
f 33/34/3 28/35/3 25/36/3
f 34/37/3 26/26/3 33/33/3
f 35/38/3 30/30/3 32/32/3
f 35/39/3 32/40/3 29/41/3
f 36/42/3 30/30/3 35/38/3
f 37/43/3 26/26/3 34/37/3
f 37/44/3 34/45/3 33/34/3
f 38/46/3 26/26/3 37/43/3
f 39/47/3 36/48/3 35/39/3
f 39/47/3 35/39/3 29/41/3
f 40/49/3 36/48/3 39/47/3
f 41/50/3 36/48/3 40/49/3
f 42/51/3 30/30/3 36/42/3
f 42/52/3 36/48/3 41/50/3
f 43/53/3 39/47/3 29/41/3
f 43/54/3 40/55/3 39/56/3
f 44/57/3 41/50/3 40/49/3
f 44/58/3 40/55/3 43/54/3
f 45/59/3 43/53/3 29/41/3
f 45/59/3 44/57/3 43/53/3
f 46/60/3 44/57/3 45/59/3
f 47/61/3 41/50/3 44/57/3
f 47/61/3 44/57/3 46/60/3
f 48/62/3 42/51/3 41/63/3
f 48/64/3 41/50/3 47/61/3
f 49/65/3 47/61/3 46/60/3
f 50/66/3 48/62/3 47/67/3
f 50/68/3 47/61/3 49/65/3
f 51/69/3 49/65/3 46/60/3
f 52/70/3 50/66/3 49/71/3
f 52/72/3 49/65/3 51/69/3
f 53/73/3 51/69/3 46/60/3
f 53/74/3 52/70/3 51/75/3
f 54/76/3 50/66/3 52/70/3
f 54/76/3 52/70/3 53/74/3
f 55/77/3 54/78/3 53/73/3
f 55/79/3 50/66/3 54/76/3
f 56/80/3 48/62/3 50/66/3
f 56/80/3 50/66/3 55/79/3
f 57/81/3 46/82/3 45/83/3
f 57/84/3 45/59/3 29/41/3
f 58/85/3 56/86/3 55/77/3
f 58/87/3 46/82/3 57/81/3
f 58/85/3 55/77/3 53/73/3
f 58/85/3 53/73/3 46/60/3
f 59/88/3 48/62/3 56/80/3
f 59/89/3 56/86/3 58/85/3
f 60/90/3 42/51/3 48/62/3
f 60/90/3 48/62/3 59/88/3
f 61/91/3 58/85/3 57/84/3
f 61/91/3 59/89/3 58/85/3
f 61/91/3 60/92/3 59/89/3
f 62/93/3 60/92/3 61/91/3
f 63/94/3 61/91/3 57/84/3
f 63/95/3 62/96/3 61/97/3
f 64/98/3 60/92/3 62/93/3
f 64/99/3 62/96/3 63/95/3
f 65/100/3 42/51/3 60/90/3
f 65/101/3 60/92/3 64/98/3
f 66/102/3 30/30/3 42/51/3
f 66/102/3 42/51/3 65/100/3
f 67/103/3 38/104/3 37/44/3
f 67/103/3 37/44/3 33/34/3
f 68/105/3 38/104/3 67/103/3
f 69/106/3 33/34/3 25/36/3
f 69/106/3 67/103/3 33/34/3
f 70/107/3 68/108/3 67/109/3
f 70/110/3 67/103/3 69/106/3
f 71/111/3 64/98/3 63/94/3
f 71/111/3 66/112/3 65/101/3
f 71/111/3 65/101/3 64/98/3
f 72/113/3 30/30/3 66/102/3
f 72/114/3 66/112/3 71/111/3
f 73/115/3 69/106/3 25/36/3
f 74/116/3 70/107/3 69/117/3
f 74/118/3 69/106/3 73/115/3
f 75/119/3 71/111/3 63/94/3
f 75/119/3 63/94/3 57/84/3
f 75/119/3 57/84/3 29/41/3
f 76/120/3 72/113/3 71/121/3
f 76/122/3 71/111/3 75/119/3
f 77/123/3 74/116/3 73/124/3
f 78/125/3 68/108/3 70/107/3
f 78/125/3 74/116/3 77/123/3
f 78/125/3 70/107/3 74/116/3
f 79/126/3 76/120/3 75/127/3
f 80/128/3 30/30/3 72/113/3
f 80/128/3 76/120/3 79/126/3
f 80/128/3 72/113/3 76/120/3
f 81/129/3 82/130/3 83/131/3
f 84/132/3 82/130/3 81/129/3
f 85/133/3 84/134/3 81/135/3
f 86/136/3 84/134/3 85/133/3
f 87/137/3 84/134/3 86/136/3
f 88/138/3 84/134/3 87/137/3
f 89/139/3 88/140/3 87/141/3
f 90/142/3 88/140/3 89/139/3
f 91/143/4 92/144/4 93/145/4
f 93/145/4 92/144/4 94/146/4
f 95/147/4 96/148/4 97/149/4
f 97/149/4 96/148/4 98/150/4
f 99/151/4 100/152/4 101/153/4
f 101/153/4 100/152/4 102/154/4
f 103/155/5 104/156/5 105/157/5
f 103/158/5 106/159/5 104/160/5
f 107/161/5 108/162/5 106/163/5
f 107/164/5 106/159/5 103/158/5
f 109/165/5 103/155/5 105/157/5
f 109/165/5 107/161/5 103/155/5
f 110/166/5 108/162/5 107/161/5
f 110/166/5 107/161/5 109/165/5
f 111/167/5 112/168/5 113/169/5
f 111/170/5 114/171/5 112/172/5
f 115/173/5 114/171/5 111/170/5
f 116/174/5 114/171/5 115/173/5
f 117/175/5 118/176/5 114/177/5
f 117/178/5 114/171/5 116/174/5
f 119/179/5 111/167/5 113/169/5
f 120/180/5 118/176/5 117/175/5
f 121/181/5 119/179/5 113/169/5
f 121/181/5 120/180/5 119/179/5
f 122/182/5 118/176/5 120/180/5
f 122/182/5 120/180/5 121/181/5
f 123/183/6 124/184/6 125/185/6
f 125/185/6 124/184/6 126/186/6
f 124/187/6 127/188/6 128/189/6
f 126/186/6 124/184/6 128/190/6
f 127/191/6 129/192/6 130/193/6
f 128/189/6 127/188/6 130/194/6
f 130/193/6 129/192/6 131/195/6
f 131/195/6 129/192/6 132/196/6
f 123/183/6 125/185/6 133/197/6
f 132/196/6 129/192/6 134/198/6
f 123/183/6 133/197/6 135/199/6
f 133/197/6 134/198/6 135/199/6
f 134/198/6 129/192/6 136/200/6
f 135/199/6 134/198/6 136/200/6
f 137/201/6 138/202/6 139/203/6
f 139/203/6 138/202/6 140/204/6
